<svg aria-hidden="true" style="position:absolute;width:0;height:0;overflow:hidden" xmlns="http://www.w3.org/2000/svg">
  <defs>    
    <!-- Camper features -->
    <symbol id="icon-adults" viewBox="0 0 32 32">
      <path d="M20.804 5.26c-1.059.192-1.898.565-2.68 1.187-2.248 1.792-3.002 4.937-1.829 7.645.222.512.698 1.248 1.045 1.615l.264.28-.547.322a10.332 10.332 0 0 0-3.742 3.767l-.026.05c-.235.414-.794 1.701-.898 2.066-.11.392-.106 1.208.01 1.65.197.739.61 1.445 1.125 1.916.334.307 1.09.698 1.572.816.238.058 1.467.072 6.428.072h6.134l.4-.125c1.139-.355 1.964-1.066 2.458-2.116.264-.562.336-.957.304-1.666v-.01c0-.397-.083-.774-.233-1.115l.007.018c-.869-2.317-2.332-4.078-4.396-5.294a24.008 24.008 0 0 1-.732-.429l.198.112c-.011-.008.077-.122.195-.251.768-.834 1.285-1.882 1.514-3.074.098-.515.083-2.013-.027-2.514-.517-2.362-2.112-4.142-4.274-4.772-.408-.118-.605-.142-1.307-.157a9.565 9.565 0 0 0-.987.009l.027-.001zm1.586 2.902c1.781.621 2.732 2.817 2.052 4.739-.467 1.32-1.532 2.194-2.785 2.287-.52.038-.914-.046-1.447-.314a3.809 3.809 0 0 1-1.367-1.278l-.009-.015c-1.259-2.119-.274-4.868 1.97-5.497.402-.112 1.146-.075 1.586.078zm-14.361.885c-1.821.4-3.333 1.908-3.85 3.838-.126.472-.142.629-.142 1.386 0 .703.019.925.114 1.264.226.824.589 1.583 1.005 2.103l.176.219-.552.355a8.428 8.428 0 0 0-3.028 3.421l-.022.05c-.478 1.008-.514 1.957-.112 2.946.301.739 1.01 1.512 1.703 1.855.667.328.973.357 3.709.338 2.618-.018 2.612-.016 2.965-.352.282-.267.379-.526.379-.997 0-.49-.11-.763-.41-1.016-.349-.293-.326-.291-2.922-.291-2.658 0-2.618.005-2.922-.341-.214-.245-.218-.387-.016-.875a5.275 5.275 0 0 1 2.655-2.825l.032-.014c.632-.301 1.165-.422 2.092-.482 1.24-.077 1.92-.264 2.753-.755.456-.269 1.272-1.048 1.579-1.509 1.455-2.175 1.143-5.028-.759-6.934a5.096 5.096 0 0 0-2.097-1.299l-.036-.01c-.496-.158-1.732-.198-2.293-.074zm1.514 2.746c.661.152 1.333.698 1.645 1.335.946 1.927-.685 4.11-2.682 3.594-1.49-.386-2.261-2.18-1.563-3.639.458-.963 1.589-1.524 2.601-1.29zm13.183 6.052c1.346.219 2.665.923 3.734 1.996a6.966 6.966 0 0 1 1.437 2.034c.301.626.336.898.181 1.357-.12.35-.554.795-.856.875-.158.043-1.845.056-5.841.045-5.55-.014-5.619-.014-5.803-.123-.358-.21-.693-.896-.619-1.271.09-.45.632-1.509 1.088-2.127a7.492 7.492 0 0 1 3.019-2.371l.048-.018a6.263 6.263 0 0 1 2.473-.499c.402 0 .796.037 1.178.109l-.039-.006z"/>
    </symbol>
    <symbol id="icon-transmission" viewBox="0 0 32 32">
      <path d="M5.667 2.935c-1.301.341-2.4 1.448-2.735 2.753a4.547 4.547 0 0 0 .006 1.992l-.006-.031A3.882 3.882 0 0 0 5 10.142l.023.01.463.222.018 1.818.018 1.816.2.405c.264.533.671.939 1.203 1.202l.405.2 3.473.054.027 4.402.026 4.404.2.405c.264.533.671.939 1.203 1.203l.405.2 2.431.016c1.664.011 2.493-.002 2.631-.042.451-.133.783-.6.784-1.109a1.142 1.142 0 0 0-.659-1.082l-.007-.003c-.197-.091-.384-.099-2.357-.099-1.879-.002-2.152-.011-2.226-.086-.077-.075-.083-.506-.072-4.146l.014-4.063 2.268-.027c2.479-.029 2.413-.021 2.73-.355.429-.451.408-1.259-.043-1.682-.346-.325-.101-.31-5.35-.31-4.29 0-4.807-.008-4.883-.083-.072-.072-.083-.288-.082-1.56l.002-1.477.466-.222a3.87 3.87 0 0 0 2.087-2.476l.006-.027a4.547 4.547 0 0 0-.006-1.992l.006.031A3.934 3.934 0 0 0 7.677 2.94l-.028-.007a4.719 4.719 0 0 0-2.014.009l.031-.006zm1.531 2.384c.531.189.92.762.92 1.351v.013c0 .787-.638 1.424-1.424 1.424h-.027.001c-1 0-1.679-.935-1.384-1.909.085-.283.419-.672.703-.816.406-.208.754-.226 1.211-.062zm14.966 4.278a1.34 1.34 0 0 0-.357.251c-.318.341-.31.216-.309 4.166.002 3.405.006 3.628.101 3.83.4.867 1.663.899 2.13.053.069-.125.094-.36.115-1.093l.027-.933.773-.032c1.122-.046 1.589-.24 2.295-.951.438-.443.743-.975.848-1.488a4.91 4.91 0 0 0-.005-1.488l.004.027c-.226-1.093-1.291-2.159-2.384-2.384-.163-.034-.861-.058-1.653-.058-1.221.002-1.394.013-1.584.101zm2.916 2.394a.801.801 0 0 1-.001 1.357l-.003.002c-.152.094-.269.114-.693.117l-.511.003-.016-.744a6.666 6.666 0 0 1 .016-.845l-.002.024c.048-.125.976-.058 1.21.086zm-2.916 9.608a1.34 1.34 0 0 0-.357.251c-.315.336-.31.282-.309 3.5.002 2.756.008 2.962.101 3.162.124.263.335.468.596.581l.008.003c.318.133 2.234.117 2.783-.022a3.934 3.934 0 0 0 2.748-2.728l.007-.028c.144-.558.144-1.403 0-1.962a3.93 3.93 0 0 0-2.727-2.748l-.027-.007c-.346-.088-.589-.106-1.509-.104-.955.002-1.127.014-1.312.101zm2.428 2.415c.517.221.864.754.864 1.327 0 .752-.594 1.389-1.344 1.447l-.24.018-.014-1.413a23.29 23.29 0 0 1 .013-1.525l-.002.045c.035-.09.395-.038.723.102z"/>
    </symbol>
    <symbol id="icon-engine" viewBox="0 0 32 32">
      <path d="M7.574 4.036a2.755 2.755 0 0 0-2.178 2.07l-.004.019c-.042.2-.059 3.404-.059 11.082v10.799H18.67v-9.975h1.967l.021 3.586c.018 3.149.03 3.623.107 3.881.338 1.119 1.141 1.972 2.199 2.333.368.126.511.147 1.04.147s.672-.021 1.04-.147a3.379 3.379 0 0 0 1.932-1.686l.009-.02c.374-.787.352-.32.352-7.802 0-7.52.022-7.037-.352-7.805-.264-.543-.658-.975-3.164-3.477l-2.378-2.373-1.413 1.413 1.373 1.375c.755.755 1.373 1.391 1.373 1.411 0 .022-.125.102-.28.181a3.365 3.365 0 0 0-1.651 1.89l-.007.024c-.299.925-.168 2.01.338 2.793.301.466.552.723.997 1.021.516.344 1.15.549 1.833.549.37 0 .726-.06 1.059-.172l-.024.007.299-.101-.029 9.986-.117.218a1.87 1.87 0 0 1-.326.406c-.635.575-1.636.376-2.055-.406-.115-.216-.117-.251-.142-3.686-.026-3.193-.035-3.487-.125-3.734a2.759 2.759 0 0 0-1.644-1.676l-.019-.006c-.28-.107-.44-.126-1.267-.147l-.946-.022v-4.793c0-3.293-.019-4.881-.059-5.075-.186-.888-.813-1.603-1.728-1.968l-.32-.128-4.428-.008a268.779 268.779 0 0 0-4.732.017l.17-.002zm8.429 5.966v3.333H8.001V6.668h8.002v3.333zm8.454.755c.493.168.88.717.88 1.245a1.38 1.38 0 0 1-1.331 1.333h-.002a1.4 1.4 0 0 1-.935-.399 1.307 1.307 0 0 1 0-1.87 1.299 1.299 0 0 1 1.396-.306l-.009-.003zm-8.454 9.914v4.666H8.001v-9.335h8.002v4.668z"/>
    </symbol>
    <symbol id="icon-kitchen" viewBox="0 0 32 32">
      <path d="M24.832 2.927c-.275.126-1.941 1.826-2.703 2.759-2.421 2.964-3.724 5.667-4.306 8.93-.208 1.171-.28 2.068-.31 3.846-.032 1.904-.021 1.997.264 2.324.336.382.173.363 3.428.392l2.933.027v1.6l-.269.034a1.101 1.101 0 0 0-.728.348l-.001.001c-.307.323-.309.342-.309 2.829.002 2.108.01 2.3.101 2.496.069.137.153.255.252.357.293.274.466.309 1.5.309 1.047-.002 1.231-.045 1.519-.352.334-.357.31.645.309-12.834-.002-11.844-.005-12.292-.101-12.498a1.214 1.214 0 0 0-1.585-.564l.008-.003zM6.161 4.26a1.254 1.254 0 0 0-.612.678l-.003.009c-.042.139-.053.979-.038 2.762.022 2.828.018 2.789.398 3.692.575 1.362 1.935 2.557 3.322 2.921l.24.062.026 7.011c.03 7.733.002 7.139.355 7.475a1.229 1.229 0 0 0 1.639-.001l-.001.001c.354-.336.326.258.355-7.475l.027-7.011.24-.062c1.386-.363 2.746-1.559 3.321-2.921.381-.903.378-.864.4-3.692.014-1.783.002-2.623-.04-2.762a1.247 1.247 0 0 0-.606-.683l-.007-.003a1.275 1.275 0 0 0-1.328.211l.002-.001c-.336.32-.325.235-.358 2.919-.035 2.693-.038 2.721-.381 3.324-.254.45-.987 1.13-1.215 1.13-.037 0-.054-1.122-.054-3.389 0-2.943-.011-3.415-.083-3.586-.392-.941-1.788-.941-2.181 0-.072.171-.083.643-.083 3.586 0 2.268-.018 3.389-.054 3.389-.227 0-.959-.68-1.215-1.13-.344-.607-.347-.631-.381-3.324-.032-2.684-.022-2.599-.358-2.919a1.27 1.27 0 0 0-1.333-.207l.008-.003zm17.98 14.504c-.021.051-.496.067-2.132.067-1.159 0-2.114-.019-2.125-.04-.035-.072.059-2.047.12-2.546.197-1.595.472-2.764.941-3.996.618-1.623 1.615-3.306 2.845-4.804l.347-.424.014 5.838c.008 3.212.002 5.868-.011 5.905z"/>
    </symbol>
    <symbol id="icon-beds" viewBox="0 0 32 32">
      <path d="M7.528 5.017c-1.167.306-2.215 1.36-2.514 2.532-.101.394-.106.592-.106 3.605v3.189l-.278.141c-.997.499-1.885 1.477-2.351 2.586-.381.906-.374.811-.397 5.171-.024 4.334-.035 4.172.317 4.532.243.25.445.336.784.339l.036.001c.295 0 .563-.115.762-.302l-.001.001c.222-.202.293-.41.328-.96.029-.464.048-.539.155-.627.118-.096.487-.099 11.74-.099s11.621.003 11.74.099c.107.088.126.163.155.627.035.55.106.759.328.96.227.206.485.304.797.301l.046.001a.967.967 0 0 0 .737-.339l.001-.001c.352-.36.341-.2.317-4.534-.024-4.356-.018-4.266-.397-5.169-.466-1.109-1.354-2.087-2.351-2.586l-.278-.141v-3.189c0-3.013-.005-3.212-.106-3.606-.302-1.183-1.352-2.232-2.535-2.535-.408-.104-.59-.106-8.477-.102-7.79.002-8.072.005-8.453.106zM24.07 7.246c.299.147.655.531.743.802.074.226.133 3.444.062 3.413a32.968 32.968 0 0 1-1.172-.545l.674.303a3.286 3.286 0 0 0-.781-.274l-.023-.004c-.557-.093-5.793-.078-6.244.018a3.379 3.379 0 0 0-1.135.503l.011-.007-.202.133-.254-.163a3.157 3.157 0 0 0-1.167-.483l-.02-.003c-.479-.077-5.667-.075-6.131.003a3.473 3.473 0 0 0-.823.287l.02-.009-.495.24c-.059.027-.048-2.868.014-3.197a1.43 1.43 0 0 1 1.014-1.089l.01-.002c.226-.054 1.836-.066 7.963-.059l7.681.01.253.125zm-9.694 5.976c.248.114.315.184.427.451l.082.197H8.111l.056-.147c.106-.228.28-.41.496-.522l.006-.003c.126-.056.715-.072 2.826-.072 2.468 0 2.684.006 2.881.096zm8.95-.026c.229.111.408.295.511.52l.003.007.056.147h-6.774l.082-.197c.112-.267.179-.338.427-.451.197-.09.416-.098 2.868-.098 2.14-.002 2.69.013 2.828.072zm2.202 2.972c.703.126 1.5.666 1.893 1.28.096.149.235.43.31.626l.139.357.016 2.226.018 2.228H4.107v-2.044c0-1.227.022-2.17.058-2.36.205-1.133 1.239-2.14 2.396-2.333.074-.013 4.3-.026 9.392-.03 6.404-.005 9.355.011 9.575.051z"/>
    </symbol>
    <symbol id="icon-AC" viewBox="0 0 32 32">
      <path d="M14.411 3.282c-2.717.477-4.777 2.511-5.318 5.251-.05.248-.078.576-.066.73.056.675.781 1.066 1.415.76.336-.163.475-.411.634-1.122.229-1.034.584-1.719 1.227-2.372.859-.874 2.004-1.333 3.273-1.319h.043a4.1 4.1 0 0 1 1.927.478l-.022-.011c1.716.835 2.727 2.769 2.407 4.603-.306 1.754-1.445 3.018-3.218 3.575l-.469.147-15.584.053-.216.144a.983.983 0 0 0 .1 1.689l.005.003.237.115 15.565-.03.626-.17c2.684-.727 4.574-2.922 4.846-5.631a6.195 6.195 0 0 0-.63-3.358l.016.036c-.884-1.789-2.516-3.094-4.476-3.516l-.043-.008c-.552-.12-1.722-.144-2.277-.046zm11.967 8.812c-2.079.282-3.77 1.788-4.244 3.777-.142.602-.16 1.323-.037 1.554a1.034 1.034 0 0 0 1.484.364l-.004.002c.274-.19.408-.488.45-.999.061-.722.293-1.25.781-1.77.552-.592 1.179-.899 1.97-.968 1.394-.12 2.769.848 3.117 2.197.394 1.527-.479 3.047-2.05 3.573-.282.094-.85.101-13.735.126-12.614.024-13.454.032-13.612.118-.643.352-.656 1.269-.024 1.698l.194.13 10.188.027c7.272.019 10.236.045 10.349.086.685.253 1.237.714 1.511 1.258.751 1.496-.178 3.265-1.853 3.524-1.314.203-2.543-.661-2.847-2.004-.098-.432-.288-.704-.592-.842-.653-.298-1.419.166-1.419.859 0 .546.328 1.442.759 2.071.576.842 1.568 1.522 2.629 1.802.568.15 1.724.138 2.293-.026 2.749-.784 4.102-3.738 2.852-6.232l-.245-.49 1.736-.021c1.669-.021 1.759-.027 2.255-.16a5.034 5.034 0 0 0 3.537-3.404l.009-.035c.13-.426.144-.547.144-1.322 0-.778-.014-.896-.147-1.335a5.02 5.02 0 0 0-3.934-3.516l-.03-.004a5.972 5.972 0 0 0-1.509-.039l.025-.002z"/>
    </symbol>
    <symbol id="icon-CD" viewBox="0 0 32 32">
      <path d="M14.723 2.86c-1.77.213-3.034.578-4.508 1.298-1.447.709-2.344 1.354-3.524 2.533s-1.824 2.077-2.533 3.524a11.645 11.645 0 0 0-.939 2.505l-.018.083c-.296 1.189-.347 1.66-.347 3.201s.051 2.012.347 3.201c.23.928.496 1.645.957 2.588.709 1.447 1.354 2.344 2.533 3.524s2.077 1.824 3.524 2.533c.741.385 1.603.713 2.505.939l.083.018c1.189.296 1.66.347 3.201.347s2.012-.051 3.201-.347a13.666 13.666 0 0 0 4.913-2.388l-.033.024c.55-.414 1.943-1.807 2.357-2.357a13.463 13.463 0 0 0 2.602-6.002l.011-.079c.077-.464.098-.883.098-2 0-1.541-.051-2.012-.347-3.201a13.666 13.666 0 0 0-2.388-4.913l.024.033c-.414-.55-1.807-1.943-2.357-2.357-1.464-1.104-3.141-1.924-4.801-2.346-1.095-.28-1.621-.342-3.041-.362a27.312 27.312 0 0 0-1.562.004l.042-.001zm2.828 2.456c3.373.474 6.372 2.583 7.995 5.627a10.735 10.735 0 0 1 1.25 5.064c0 .996-.134 1.961-.385 2.878l.018-.076c-.906 3.311-3.277 5.98-6.42 7.224a10.75 10.75 0 0 1-4.019.765c-.926 0-1.825-.115-2.683-.331l.076.016a10.88 10.88 0 0 1-7.061-5.695l-.028-.063a10.111 10.111 0 0 1-1.076-4.574l.001-.155v.008l-.001-.105c0-2.203.679-4.248 1.838-5.936l-.023.036c1.961-2.907 5.242-4.794 8.963-4.794.549 0 1.088.041 1.615.12l-.059-.007zm-2.399 2.207a8.532 8.532 0 0 0-6.874 4.884l-.022.052c-.455.991-.647 1.759-.744 2.967l-.064.784.157.302c.095.188.226.345.386.467l.003.002c.214.155.264.168.671.168.4 0 .461-.014.666-.157.374-.259.493-.525.541-1.221.115-1.637.666-2.919 1.727-4.03 1.074-1.122 2.479-1.752 4.175-1.872.696-.048.962-.166 1.221-.541.142-.205.157-.266.157-.661s-.014-.458-.157-.663c-.235-.339-.547-.499-1.01-.515l-.14-.001c-.244 0-.485.012-.722.036l.03-.002zm.069 4.022c-1.781.339-3.127 1.579-3.599 3.311-.163.603-.165 1.685-.002 2.295a4.684 4.684 0 0 0 3.203 3.228l.033.008c.605.162 1.69.162 2.295 0a4.7 4.7 0 0 0 2.894-2.354l.012-.026c.338-.674.443-1.152.443-2.004 0-.566-.024-.811-.114-1.147-.414-1.547-1.711-2.841-3.236-3.231-.55-.139-1.427-.176-1.93-.08zm1.336 2.405c1.259.328 1.924 1.759 1.37 2.945a2.135 2.135 0 0 1-2.285 1.203l.012.002c-1.247-.214-2.055-1.488-1.7-2.682a2.143 2.143 0 0 1 2.602-1.467z"/>
    </symbol>
    <symbol id="icon-TV" viewBox="0 0 32 32">
      <path d="M9.543 1.241c-.28.189-.422.439-.422.744 0 .144.027.314.059.379s1.093 1.152 2.356 2.419l2.298 2.304-6.554.038-.51.139a4.865 4.865 0 0 0-2.291 1.355l-.002.002a4.808 4.808 0 0 0-1.208 2.116l-.008.034-.141.51v5.681c0 5.34.006 5.706.099 6.102.414 1.767 1.658 3.092 3.421 3.642l.48.15h17.762l.48-.15c1.953-.609 3.263-2.174 3.492-4.171.043-.378.056-2.096.042-5.894-.019-5.339-.02-5.363-.138-5.809-.133-.503-.444-1.202-.707-1.588-.639-.936-1.686-1.673-2.819-1.98l-.51-.139-6.554-.038 2.298-2.304c1.263-1.267 2.324-2.355 2.356-2.419s.059-.235.059-.379v-.003a.862.862 0 0 0-.862-.862h-.003c-.144 0-.314.027-.379.059-.064.032-1.358 1.298-2.876 2.813l-2.76 2.754-2.76-2.754c-1.518-1.515-2.812-2.781-2.876-2.813-.205-.104-.622-.072-.822.062zM24.744 8.99c1.07.252 2.018 1.2 2.27 2.27.122.515.122 11.016.001 11.491-.144.565-.383.978-.821 1.417a2.996 2.996 0 0 1-1.346.824l-.021.005c-.302.094-.722.098-8.825.098s-8.523-.004-8.825-.098c-1.094-.337-1.916-1.182-2.188-2.246-.121-.475-.121-10.976.001-11.491.25-1.064 1.19-2.012 2.245-2.268.485-.117 17.012-.119 17.509-.002zm-13.17 20.231a.966.966 0 0 0-.458.627l-.001.006c-.077.411.254.934.634 1.002.095.017 2.068.024 4.386.016l4.215-.016.179-.128c.201-.143.378-.483.378-.725s-.177-.582-.378-.725l-.179-.128-4.295-.014c-4.102-.014-4.302-.01-4.481.085z"/>
    </symbol>
    <symbol id="icon-airConditioner" viewBox="0 0 32 32">
      <path d="M2.588.038a4.622 4.622 0 0 0-1.061.47l.021-.012a3.819 3.819 0 0 0-1.357 1.64l-.009.025-.154.373-.014 6.505c-.013 5.84-.006 6.536.07 6.801.315 1.09 1.269 2.04 2.397 2.386.307.094.855.098 13.523.098s13.215-.003 13.523-.098c1.128-.346 2.082-1.296 2.397-2.386.077-.266.083-.962.07-6.801l-.014-6.505-.154-.373A3.646 3.646 0 0 0 29.87.19l-.024-.009-.373-.154-13.39-.008C8.718.016 2.645.024 2.588.038zm26.555 2.47c.109.074.262.227.344.341l.146.21v12.172l-.131.186a1.053 1.053 0 0 1-.502.426l-.007.002c-.192.091-.341.102-1.424.104l-1.208.002-.022-2.015c-.018-1.647-.037-2.066-.107-2.3a3.627 3.627 0 0 0-2.473-2.438l-.025-.006c-.323-.091-.746-.098-7.73-.098s-7.406.006-7.729.098a3.618 3.618 0 0 0-2.495 2.429l-.007.025c-.066.221-.086.672-.104 2.288l-.022 2.015-1.208-.002c-1.058-.002-1.237-.014-1.424-.099-.28-.128-.547-.408-.613-.643-.034-.12-.053-2.376-.053-6.099 0-4.857.013-5.94.072-6.083.133-.259.336-.466.585-.6l.007-.004c.133-.058 2.442-.069 13.049-.059l12.886.011.197.134zm-5.959 9.04c.169.053.314.14.434.253.326.339.334.389.334 2.36v1.789H8.055l.002-1.8c.002-1.992.01-2.05.358-2.378.328-.307.029-.296 7.566-.299 5.961-.003 6.974.008 7.203.075zm-14.39 10.17c-.16.059-.298.142-.418.245l.002-.002c-.405.346-.4.322-.429 2.204l-.027 1.68-.146.312c-.352.751-1.031 1.208-1.794 1.208-.685 0-1.183.28-1.37.773a1.174 1.174 0 0 0 .555 1.481l.007.003c.29.154.304.155.935.125.719-.034 1.099-.122 1.671-.384a4.415 4.415 0 0 0 2.515-3.415l.002-.022c.035-.27.053-1.045.042-1.92-.018-1.579-.026-1.632-.33-1.965-.264-.293-.81-.437-1.215-.322zm6.828.011a1.31 1.31 0 0 0-.626.499l-.003.005-.138.198-.014 4.377-.013 4.377.123.237c.077.147.222.304.381.411.234.158.291.173.671.173s.437-.014.671-.173a1.21 1.21 0 0 0 .376-.404l.126-.24V26.87c0-3.898-.008-4.335-.088-4.502a1.42 1.42 0 0 0-.556-.58l-.007-.004a1.37 1.37 0 0 0-.912-.053l.01-.002zm6.866.008a1.202 1.202 0 0 0-.774.813l-.002.008c-.088.315-.067 3.005.026 3.543a4.375 4.375 0 0 0 2.463 3.25l.027.011c.571.262.952.35 1.671.384.631.03.645.029.935-.125.394-.208.6-.514.631-.935.058-.805-.504-1.322-1.439-1.322-.387 0-.805-.138-1.106-.363a1.995 1.995 0 0 1-.683-.832l-.005-.013-.146-.312-.027-1.68c-.029-1.882-.024-1.858-.427-2.204a1.133 1.133 0 0 0-1.15-.222l.008-.003z"/>
    </symbol>
    <symbol id="icon-freezer" viewBox="0 0 32 32">
      <path d="M7.974 2.028c-1.043.208-1.941 1.029-2.268 2.076-.106.338-.107.475-.107 11.069.002 11.541-.011 11.005.262 11.543.282.55.863 1.143 1.346 1.371.17.08.198.122.221.318.062.562.52 1.168 1.093 1.45.306.15.314.15 1.52.168 1.376.019 1.592-.018 2.039-.333a1.96 1.96 0 0 0 .728-.946l.115-.312h6.171l.035.146c.122.504.584 1.053 1.087 1.29.291.136.304.138 1.628.138s1.336-.002 1.628-.138c.558-.262.97-.784 1.095-1.381.058-.282.072-.299.376-.477.639-.371 1.162-1.043 1.391-1.792.094-.306.099-.783.099-10.988 0-8.864-.013-10.719-.074-10.962-.264-1.059-1.251-2.023-2.29-2.236-.334-.069-15.749-.074-16.094-.005zm16.002 2.206c.125.104.226.232.299.376l.003.007c.096.218.099.398.086 3.847l-.013 3.618H7.653V4.713l.147-.221c.093-.133.208-.242.342-.325l.005-.003c.197-.104.309-.106 7.912-.094l7.712.011.203.154zM9.895 5.595a.988.988 0 0 0-.527.545l-.002.007c-.07.168-.083.535-.083 2.423 0 2.167.003 2.232.114 2.461a.98.98 0 0 0 .876.545l.04-.001h-.002.027c.156 0 .305-.028.442-.08l-.009.003c.246-.151.434-.377.533-.646l.003-.009c.074-.27.075-4.345 0-4.614-.162-.584-.85-.893-1.411-.635zm14.457 14.332v5.766l-.144.216c-.097.138-.223.25-.37.327l-.006.003-.234.114h-7.587c-6.254 0-7.616-.013-7.758-.072a1.066 1.066 0 0 1-.564-.642l-.002-.008c-.064-.258-.086-11.396-.022-11.46.019-.019 3.783-.029 8.362-.021l8.326.013v5.764zm-14.294-5.518a1.03 1.03 0 0 0-.671.541l-.003.006c-.093.203-.101.386-.101 2.46 0 2.06.008 2.258.099 2.456.342.754 1.383.808 1.826.094l.126-.203v-4.641l-.141-.24a1.036 1.036 0 0 0-1.144-.472l.007-.002z"/>
    </symbol>
    <symbol id="icon-gas" viewBox="0 0 32 32">
      <path d="M18.671 1.732c-1.842.543-3.922 1.938-5.318 3.57a11.615 11.615 0 0 0-2.827 7.13l-.001.024c-.061 1.575.17 2.874.837 4.694.138.376.118.6-.075.851-.269.355-.787.459-1.226.246-.253-.123-.647-.594-1.042-1.243-1.127-1.855-1.319-4.354-.49-6.385.09-.218.155-.405.146-.413-.045-.046-.875.733-1.277 1.195-1.965 2.269-2.917 5.391-2.493 8.174.254 1.671 1.013 3.604 1.85 4.715a11.401 11.401 0 0 0 6.111 4.101l.079.018c.941.242 1.701.339 2.925.379 4.855.157 8.72-1.858 10.455-5.451a9.646 9.646 0 0 0 .754-2.293c.147-.787.134-2.308-.024-3.049-.254-1.192-.621-2.005-1.466-3.263-.791-1.176-1.501-1.856-3.196-3.057-1.221-.864-1.584-1.155-2.106-1.687-1.997-2.024-2.565-5.305-1.37-7.906.099-.218.176-.413.168-.434-.008-.019-.195.018-.414.082zm-1.61 12.311a8.132 8.132 0 0 0 1.029 1.451c.238.261 1.599 1.458 2.052 1.805.222.171.77.893.955 1.263.302.6.418 1.152.384 1.842a4.082 4.082 0 0 1-.504 1.863l.011-.021c-.55 1.066-1.394 1.744-2.669 2.154-1.112.355-2.109.285-3.245-.229-.464-.211-1.413-.863-1.416-.973 0-.019.069-.048.155-.066.334-.066 1.031-.373 1.402-.616a4.315 4.315 0 0 0 1.649-2.021l.01-.029c.157-.41.166-.479.165-1.13-.003-.623-.022-.767-.197-1.424-.32-1.205-.381-1.592-.376-2.416.002-.578.027-.837.112-1.146.12-.44.21-.695.246-.695.013 0 .118.174.237.387z"/>
    </symbol>
    <symbol id="icon-hob" viewBox="0 0 32 32">
      <path d="M3.226 5.59a2.64 2.64 0 0 0-1.501 1.322l-.007.015-.198.402v18.68l.2.405c.264.535.671.941 1.203 1.203l.405.2h25.349l.405-.2a2.594 2.594 0 0 0 1.203-1.203l.2-.405V7.329l-.2-.405a2.628 2.628 0 0 0-1.188-1.197l-.015-.007-.405-.2-12.591-.011c-11.839-.011-12.609-.006-12.86.08zm7.576 11.08v8.802l-3.396.013c-3.036.013-3.405.005-3.481-.07-.077-.075-.085-.925-.085-8.744 0-7.821.008-8.669.085-8.746.075-.075.445-.083 3.481-.07l3.396.014v8.802zm17.28-8.745c.075.077.083.943.083 8.746 0 7.809-.008 8.669-.083 8.744-.077.075-.81.083-7.481.07l-7.398-.013-.014-8.749c-.006-4.812-.002-8.778.013-8.815.019-.053 1.551-.067 7.411-.067 6.643 0 7.395.008 7.47.083zm-3.957 1.68a1.315 1.315 0 0 0-.376.307l-.002.002c-.173.221-7.862 11.119-8.083 11.455a1.14 1.14 0 0 0 .17 1.462l.001.001c.499.485 1.165.498 1.637.035.202-.198 7.939-11.117 8.246-11.639.098-.165.126-.291.126-.559l.001-.042c0-.395-.201-.743-.507-.946l-.004-.003c-.309-.213-.869-.248-1.21-.074zm-17.183.589c-.261.078-.68.52-.754.792-.04.149-.054.754-.043 1.815l.016 1.592.162.23c.088.126.264.302.39.39.206.146.272.162.621.162s.416-.016.621-.162c.126-.088.302-.264.392-.39l.162-.23v-3.449l-.162-.23c-.251-.355-.538-.53-.911-.555a1.705 1.705 0 0 0-.506.038l.012-.002zm-.213 6.64c-.488.246-.73.691-.691 1.275.017.43.251.801.595 1.01l.005.003c.235.146.306.162.696.162.392 0 .463-.016.696-.162.172-.109.313-.251.419-.417l.003-.005c.146-.235.162-.306.162-.696s-.016-.461-.162-.696c-.237-.386-.578-.578-1.059-.6-.326-.016-.418.002-.664.126zm0 4c-.488.246-.73.691-.691 1.275.017.43.251.801.595 1.01l.005.003c.235.146.306.162.696.162.392 0 .463-.016.696-.162.172-.109.313-.251.419-.417l.003-.005c.146-.235.162-.306.162-.696s-.016-.461-.162-.696c-.237-.386-.578-.578-1.059-.6-.326-.016-.418.002-.664.126z"/>
    </symbol>
    <symbol id="icon-microwave" viewBox="0 0 32 32">
      <path d="M1.879 4.643c-.762.11-1.506.776-1.757 1.572-.098.314-.098 19.265 0 19.578.259.821.989 1.458 1.805 1.575.454.066 27.698.066 28.153 0 .816-.117 1.546-.754 1.805-1.575.098-.314.098-19.265 0-19.578-.259-.821-.989-1.458-1.805-1.575-.413-.061-27.791-.058-28.201.003zm27.86 11.36v9.149H2.268l-.014-9.096c-.008-5.003-.002-9.125.011-9.162.021-.053 2.799-.064 13.75-.053l13.724.013v9.149zM6.358 9.232c-.837.166-1.573.955-1.719 1.842-.069.419-.069 9.439 0 9.858.15.915.888 1.684 1.773 1.847.19.035 2.613.05 6.929.04l6.635-.014.386-.181a2.273 2.273 0 0 0 1.299-1.757c.059-.464.059-9.263 0-9.727a2.28 2.28 0 0 0-1.286-1.751l-.014-.006-.386-.181-6.694-.008c-3.682-.005-6.798.013-6.925.038zm18.634 1.095a3.036 3.036 0 0 1-.193.045l-.036.006c-.171.037-.547.392-.634.595-.168.403-.05.994.258 1.28.253.237.469.282 1.325.282.877 0 1.072-.045 1.351-.309.232-.221.32-.432.325-.784l.001-.045a1.06 1.06 0 0 0-.535-.922l-.005-.003c-.234-.136-.29-.146-.999-.158a9.301 9.301 0 0 0-.884.015l.026-.001zm-5.521 5.676v4.588H6.829v-9.176h12.642v4.588zm5.183-.982c-.426.214-.57.463-.57.983 0 .526.146.773.581.986.286.141.31.144 1.146.126.85-.019.851-.019 1.083-.181a1.121 1.121 0 0 0 .004-1.86l-.004-.003-.232-.162-.863-.018c-.845-.016-.867-.013-1.146.128z"/>
    </symbol>
    <symbol id="icon-radio" viewBox="0 0 32 32">
      <path d="M13.95 4.366 8.189 7.079l-.555.062c-1.904.214-3.109.709-4.102 1.68-1.027 1.008-1.504 2.197-1.76 4.402-.08.677-.091 1.394-.091 5.447s.011 4.769.091 5.446c.254 2.183.704 3.325 1.716 4.358 1.008 1.027 2.197 1.504 4.402 1.76.698.082 1.549.091 8.114.091s7.416-.01 8.114-.091c2.205-.256 3.394-.733 4.402-1.76 1.011-1.032 1.461-2.175 1.716-4.358.08-.677.091-1.392.091-5.446s-.011-4.771-.091-5.447c-.256-2.205-.733-3.394-1.76-4.402-1.018-.997-2.16-1.453-4.278-1.709-.576-.069-1.586-.088-5.759-.109-2.839-.013-5.041-.043-5.014-.069.026-.026 1.65-.802 3.61-1.725 1.96-.922 3.612-1.722 3.673-1.776.192-.196.31-.464.31-.76v-.006c0-.599-.419-1.013-1.024-1.011-.261 0-.719.205-6.043 2.711zm7.867 4.701c1.768.053 2.421.11 3.201.277 1.786.384 2.604 1.208 2.983 3.007.182.859.211 1.258.278 3.852a79.576 79.576 0 0 1 0 4.934 72.215 72.215 0 0 1-.125 3.095l.01-.201c-.12 1.011-.397 1.964-.725 2.493-.571.927-1.65 1.437-3.461 1.64-.912.102-3.676.155-7.974.155s-7.062-.053-7.974-.155c-2.58-.29-3.626-1.138-4.05-3.281-.154-.773-.186-1.253-.253-3.748a77.787 77.787 0 0 1 .004-5.06l-.003.126c.037-1.357.09-2.66.117-2.893.267-2.25.954-3.281 2.532-3.806.799-.266 1.744-.381 3.575-.434 1.981-.056 9.999-.059 11.868-.003zM8.445 11.069C7.19 11.341 6 12.546 5.731 13.814c-.096.45-.094 1.264.002 1.72.27 1.275 1.467 2.469 2.746 2.74.525.11 14.536.112 15.049.002 1.283-.277 2.476-1.466 2.746-2.741a5.184 5.184 0 0 0-.005-1.761l.005.031c-.27-1.275-1.466-2.468-2.746-2.74-.509-.107-14.587-.104-15.083.005zm14.867 2.113a1.623 1.623 0 0 1 .01 2.97l-.01.004c-.282.131-.334.138-1.28.139l-.987.002-.027-.671c-.024-.603-.04-.691-.16-.867-.158-.234-.579-.463-.853-.463s-.695.229-.853.463c-.12.176-.136.264-.16.867l-.027.671H8.99l-.294-.139c-1.055-.501-1.307-1.828-.501-2.626.228-.234.526-.399.861-.459l.01-.001c.134-.024 3.329-.038 7.099-.035l6.854.008.294.139zm-13.95 6.511c-.355.067-.954.362-1.269.626-.763.635-1.104 1.362-1.104 2.352 0 .775.195 1.354.635 1.882 1.272 1.532 3.487 1.536 4.748.008.256-.309.506-.816.584-1.186.082-.382.075-1.152-.013-1.479-.414-1.549-1.973-2.509-3.582-2.204zm7.521 2.054a.982.982 0 0 0-.56.926v-.002c0 .416.187.73.544.912.189.096.371.101 3.804.101 3.431 0 3.613-.005 3.802-.101a.964.964 0 0 0 .545-.867l-.001-.048v.002l.001-.046c0-.38-.22-.709-.54-.865l-.006-.003c-.189-.096-.368-.101-3.814-.098-3.196.002-3.636.011-3.777.086zm-6.551.02c.36.151.609.498.616.903v.001c0 .282-.096.496-.314.703-.598.565-1.578.128-1.578-.703 0-.283.096-.496.314-.704a.924.924 0 0 1 .968-.198l-.006-.002z"/>
    </symbol>
    <symbol id="icon-shower" viewBox="0 0 32 32">
      <path d="M5.201 4.346c-.029.01-.117.033-.196.05-.186.041-.452.268-.561.478-.112.215-.113.705-.002.914.047.088.722.794 1.499 1.57l1.414 1.41-.175.243c-.658.915-1.149 2.153-1.315 3.314-.084.589-.037 2.064.083 2.609.201.918.631 1.938 1.123 2.665l.235.349-.74.746c-.407.411-.771.807-.808.88-.088.173-.088.683.001.854.101.195.273.372.455.467.208.108.701.107.907-.002.088-.047 3.225-3.153 6.971-6.903 4.929-4.933 6.823-6.862 6.853-6.978.189-.728-.235-1.324-.942-1.324-.162 0-.354.03-.427.068s-.469.401-.88.808l-.746.74-.349-.235c-.727-.492-1.747-.922-2.665-1.123-.545-.12-2.02-.167-2.609-.083-1.161.166-2.399.657-3.314 1.315l-.243.175-1.41-1.414c-.776-.777-1.47-1.445-1.544-1.484-.14-.074-.523-.143-.613-.111zm9.118 3.521c.233.041.593.13.8.198.412.133 1.319.577 1.346.659.024.073-7.695 7.778-7.755 7.741-.078-.048-.527-.984-.651-1.357-.421-1.26-.331-2.824.23-4.04 1.066-2.308 3.573-3.639 6.03-3.201zm6.884 4.479c-.029.01-.117.033-.196.05-.186.041-.452.268-.561.478-.111.213-.113.704-.003.914.166.318.551.56.893.56s.728-.242.894-.56c.101-.194.11-.697.015-.881a1.13 1.13 0 0 0-.424-.448l-.005-.003c-.141-.073-.524-.142-.613-.11zm5.333 1.334a1.71 1.71 0 0 1-.181.048l-.015.003c-.185.04-.452.267-.561.477-.111.214-.112.705-.003.914.166.318.552.56.894.56s.727-.242.893-.56c.102-.194.11-.697.016-.88a1.14 1.14 0 0 0-.424-.449l-.005-.003c-.142-.073-.525-.141-.614-.11zm-9.334 2.667c-.029.01-.117.033-.196.05-.186.041-.452.268-.561.478-.111.213-.113.704-.003.914.166.318.551.56.893.56s.728-.242.894-.56c.101-.194.11-.697.015-.881a1.13 1.13 0 0 0-.424-.448l-.005-.003c-.141-.073-.524-.142-.613-.11zm5.334 1.333a1.71 1.71 0 0 1-.181.048l-.015.003c-.185.04-.452.267-.561.477-.111.214-.112.705-.003.914.166.318.552.56.894.56s.727-.242.893-.56c.102-.194.11-.697.016-.88a1.14 1.14 0 0 0-.424-.449l-.005-.003c-.142-.073-.525-.141-.614-.11zm-9.334 2.667c-.029.01-.117.033-.196.05-.186.041-.452.268-.561.478-.111.213-.113.704-.003.914.166.318.551.56.893.56s.728-.242.894-.56c.101-.194.11-.697.015-.881a1.13 1.13 0 0 0-.424-.448l-.005-.003c-.141-.073-.524-.142-.613-.11zm5.333 1.334a1.71 1.71 0 0 1-.181.048l-.015.003c-.185.04-.452.267-.561.477-.111.214-.112.705-.003.914.166.318.552.56.894.56s.727-.242.893-.56c.102-.194.11-.697.016-.88a1.14 1.14 0 0 0-.424-.449l-.005-.003c-.142-.073-.525-.141-.614-.11zm-4 4a1.71 1.71 0 0 1-.181.048l-.015.003c-.185.04-.452.267-.561.477-.111.214-.112.705-.003.914.166.318.552.56.894.56s.727-.242.893-.56c.102-.194.11-.697.016-.88a1.14 1.14 0 0 0-.424-.449l-.005-.003c-.142-.073-.525-.141-.614-.11z"/>
    </symbol>
    <symbol id="icon-toilet" viewBox="0 0 32 32">
      <path d="M7.334 4.079c-1.216.267-2.277 1.197-3.135 2.749-.629 1.136-1.147 2.932-1.408 4.887-.115.864-.133 3.492-.029 4.34.189 1.549.547 3.037 1 4.166.746 1.855 1.906 3.165 3.194 3.609.382.131.506.147 1.072.144.579-.003.68-.019 1.072-.166.506-.19.939-.458 1.306-.8l.262-.245.002 2.074c.002 1.594.019 2.122.074 2.276.176.483.612.831 1.134.877h.005c.288.027.442-.016 2.215-.603l1.904-.632 1.885.626c1.037.344 1.962.626 2.056.626.093 0 1.045-.146 2.114-.325l1.946-.325 1.983.331c1.415.235 2.052.322 2.223.298a1.347 1.347 0 0 0 1.068-.941l.002-.009c.048-.174.059-1.975.043-7.483-.018-6.403-.03-7.328-.107-7.869-.219-1.522-.518-2.741-.928-3.788-.456-1.163-.971-1.98-1.719-2.725-.437-.434-.59-.549-1.019-.762-.877-.432-.234-.405-9.575-.402-6.675.003-8.384.018-8.642.074zm.997 2.701c.973.496 1.86 2.559 2.21 5.142.133.97.133 3.191 0 4.161-.394 2.906-1.522 5.228-2.54 5.228s-2.146-2.322-2.54-5.228c-.133-.97-.133-3.191 0-4.161.349-2.57 1.229-4.63 2.197-5.14.267-.141.402-.141.672-.002zm16.003 0c.792.403 1.618 2.031 2.015 3.969.293 1.431.286 1.282.309 8.042.018 6.019.014 6.281-.077 6.28-.053 0-.589-.083-1.189-.186a13.891 13.891 0 0 0-1.297-.182l-.063-.005c-.147 0-1.085.134-2.085.299l-1.816.302-1.948-.648c-1.277-.424-2.026-.647-2.176-.647-.178 0-1.876.514-2.601.786-.05.018-.069-1.395-.085-6.235-.018-5.529-.03-6.334-.11-6.894-.264-1.842-.658-3.271-1.231-4.46.131.314.053.152-.026-.01l-.21-.482c-.01-.022 2.77-.04 6.177-.04 6.184 0 6.195 0 6.412.112zM7.517 11.535c-.28.216-.538.671-.698 1.239-.176.623-.176 1.839 0 2.453.551 1.919 1.815 1.919 2.365 0 .176-.615.176-1.831 0-2.453-.256-.903-.682-1.411-1.183-1.411-.21 0-.301.032-.485.173z"/>
    </symbol>
    <symbol id="icon-water" viewBox="0 0 32 32">
      <path d="M15.595 2.346a2.269 2.269 0 0 0-.903.467l.003-.003a21.94 21.94 0 0 0-.885 1.031c-2.493 3.028-4.524 6.076-5.934 8.909-1.043 2.096-1.591 3.658-1.936 5.521-.078.429-.098.792-.096 1.866.002 1.469.072 2.034.394 3.183.986 3.509 3.588 5.897 7.224 6.632.93.187 1.483.24 2.541.24.514 0 1.149-.024 1.413-.054 4.966-.565 8.184-3.81 8.728-8.802.078-.723.034-2.432-.082-3.065-.33-1.82-.896-3.436-1.933-5.521-1.413-2.841-3.442-5.884-5.94-8.915a16.96 16.96 0 0 0-.95-1.089l.007.007c-.405-.341-1.125-.517-1.652-.406zm.827 3.105c3.18 3.903 5.667 7.998 6.713 11.06.413 1.205.595 2.133.64 3.234.078 1.973-.408 3.82-1.355 5.153a7.23 7.23 0 0 1-2.169 1.931l-.035.018c-1.74.96-4.522 1.229-6.747.651-1.868-.486-3.349-1.594-4.246-3.175-.831-1.464-1.181-3.532-.928-5.462.344-2.625 1.991-6.097 4.798-10.112.903-1.293 2.818-3.782 2.909-3.78.014 0 .203.218.419.482zm4.544 14.004c-.437.229-.59.479-.655 1.064-.086.779-.146 1.016-.373 1.469a2.98 2.98 0 0 1-.595.815l-.001.001c-.626.632-1.215.901-2.16.991-.674.064-.944.195-1.181.568a1.13 1.13 0 0 0 .098 1.408l-.001-.001c.267.31.533.419 1.031.421 2.922.008 5.507-2.548 5.556-5.494.008-.424-.01-.541-.104-.72a1.176 1.176 0 0 0-.998-.651h-.003a.854.854 0 0 0-.619.132l.003-.002z"/>
    </symbol>
    
    
  <symbol fill="none" xmlns="http://www.w3.org/2000/svg" viewBox="0 0 40 28" id="icon-panelTruck">
    <path d="M2.28197 1.57469H13.14C13.2318 1.57469 13.318 1.53975 13.3831 1.47627L14.4262 0.45863C14.7294 0.162883 15.1324 0 15.5612 0H32.0257C32.7924 0 33.5042 0.371529 33.9299 0.994024L35.9032 3.88162C36.1831 4.29153 36.2088 4.81561 35.9707 5.25012C35.7327 5.68464 35.2706 5.95431 34.7657 5.95431H26.2799V6.79086H30.626C31.7781 6.79086 32.8146 7.45863 33.2666 8.49251L35.8113 14.311L38.0404 15.181C39.2308 15.6456 40 16.7537 40 18.0046V23.393C40 24.1966 39.3296 24.8506 38.5059 24.8506H35.9122C35.6106 26.6344 34.0187 28 32.1059 28C30.1932 28 28.6013 26.6344 28.2996 24.8506H14.1216C13.8199 26.6344 12.228 28 10.3153 28C8.40252 28 6.81059 26.6344 6.50895 24.8506H1.32812C0.595715 24.8506 0 24.2695 0 23.5549V3.80091C0 2.57315 1.02345 1.57469 2.28197 1.57469ZM32.1059 26.7698C33.5385 26.7698 34.7037 25.633 34.7037 24.2355C34.7037 22.838 33.5385 21.7012 32.1059 21.7012C30.6734 21.7012 29.5082 22.838 29.5082 24.2355C29.5082 25.633 30.6734 26.7698 32.1059 26.7698ZM26.2799 23.6204H28.2986C28.3037 23.5894 28.3102 23.5594 28.3163 23.5289C28.3203 23.5082 28.3238 23.4875 28.3284 23.4669C28.3385 23.4186 28.3501 23.3709 28.3622 23.3232C28.3647 23.3133 28.3667 23.3035 28.3697 23.2936C28.3849 23.2361 28.4015 23.1795 28.4192 23.1234C28.4242 23.1071 28.4303 23.0909 28.4358 23.0742C28.4489 23.0348 28.4625 22.9954 28.4767 22.9566C28.4847 22.9359 28.4928 22.9152 28.5014 22.8946C28.5145 22.8606 28.5276 22.8266 28.5422 22.7932C28.5513 22.771 28.5614 22.7494 28.5715 22.7277C28.5856 22.6957 28.5997 22.6647 28.6149 22.6333C28.626 22.6111 28.6366 22.5895 28.6482 22.5673C28.6633 22.5373 28.6794 22.5068 28.6956 22.4773C28.7072 22.4556 28.7193 22.434 28.7314 22.4123C28.748 22.3828 28.7657 22.3533 28.7834 22.3242C28.796 22.3035 28.8086 22.2829 28.8212 22.2622C28.8404 22.2327 28.8595 22.2037 28.8792 22.1741C28.8923 22.1549 28.9049 22.1357 28.918 22.117C28.9397 22.086 28.9624 22.0555 28.9856 22.025C28.9972 22.0088 29.0088 21.9925 29.0209 21.9768C29.0522 21.9364 29.084 21.8976 29.1163 21.8587C29.1208 21.8528 29.1253 21.8469 29.1304 21.841C29.1677 21.7967 29.2066 21.7534 29.2459 21.7111C29.258 21.6978 29.2706 21.6855 29.2832 21.6727C29.311 21.6437 29.3387 21.6146 29.3675 21.5861C29.3836 21.5703 29.4003 21.5551 29.4164 21.5398C29.4421 21.5152 29.4683 21.4906 29.4951 21.4665C29.5127 21.4508 29.5309 21.435 29.5491 21.4193C29.5753 21.3966 29.6015 21.3745 29.6282 21.3523L29.6858 21.3066C29.7125 21.2854 29.7397 21.2647 29.767 21.2441C29.7866 21.2293 29.8068 21.2146 29.827 21.2003C29.8547 21.1801 29.883 21.1609 29.9117 21.1412C29.9319 21.1279 29.9521 21.1142 29.9723 21.1009C30.002 21.0812 30.0328 21.0625 30.0631 21.0438C30.0827 21.032 30.1024 21.0197 30.1226 21.0079C30.1559 20.9882 30.1902 20.9695 30.2245 20.9508C30.2421 20.941 30.2593 20.9311 30.2764 20.9218C30.3253 20.8962 30.3743 20.8716 30.4237 20.8479C30.4277 20.8465 30.4313 20.8445 30.4353 20.8425C30.4888 20.8174 30.5433 20.7933 30.5977 20.7707C30.6154 20.7633 30.6335 20.7569 30.6512 20.7495C30.6885 20.7348 30.7264 20.72 30.7647 20.7057C30.7864 20.6979 30.8086 20.691 30.8303 20.6831C30.8651 20.6713 30.8999 20.6595 30.9352 20.6486C30.9589 20.6413 30.9826 20.6344 31.0068 20.6275C31.0411 20.6176 31.0754 20.6078 31.1097 20.5989C31.1344 20.5925 31.1591 20.5862 31.1844 20.5802C31.2187 20.5719 31.253 20.5645 31.2878 20.5571C31.313 20.5517 31.3382 20.5463 31.3639 20.5414C31.3992 20.535 31.4346 20.5286 31.4704 20.5232C31.4956 20.5187 31.5203 20.5148 31.546 20.5114C31.5828 20.5059 31.6202 20.5015 31.658 20.4971C31.6817 20.4946 31.7059 20.4912 31.7301 20.4892C31.7715 20.4853 31.8134 20.4823 31.8552 20.4799C31.8759 20.4784 31.8961 20.4764 31.9168 20.4759C31.9798 20.4725 32.0424 20.471 32.1059 20.471C32.1695 20.471 32.232 20.4725 32.2951 20.4759C32.3158 20.4764 32.3359 20.4784 32.3566 20.4799C32.3985 20.4823 32.4404 20.4853 32.4817 20.4892C32.5059 20.4912 32.5301 20.4946 32.5538 20.4971C32.5917 20.5015 32.629 20.5059 32.6658 20.5114C32.6916 20.5148 32.7163 20.5187 32.7415 20.5232C32.7773 20.5286 32.8126 20.535 32.8479 20.5414C32.8736 20.5463 32.8989 20.5517 32.9241 20.5571C32.9589 20.5645 32.9932 20.5719 33.0275 20.5802C33.0527 20.5862 33.0774 20.5925 33.1021 20.5989C33.1364 20.6078 33.1707 20.6176 33.205 20.6275C33.2293 20.6344 33.253 20.6413 33.2767 20.6486C33.312 20.6595 33.3468 20.6713 33.3816 20.6831C33.4033 20.691 33.4255 20.6979 33.4472 20.7057C33.4855 20.72 33.5233 20.7348 33.5607 20.7495C33.5783 20.7569 33.5965 20.7633 33.6141 20.7707C33.6686 20.7933 33.7231 20.8174 33.7765 20.8425C33.7806 20.8445 33.7841 20.8465 33.7881 20.8479C33.8376 20.8716 33.8865 20.8962 33.9354 20.9218C33.9526 20.9311 33.9697 20.941 33.9874 20.9508C34.0217 20.9695 34.056 20.9882 34.0893 21.0079C34.1095 21.0197 34.1291 21.032 34.1488 21.0438C34.1791 21.0625 34.2098 21.0812 34.2396 21.1009C34.2598 21.1142 34.2799 21.1279 34.3001 21.1412C34.3289 21.1609 34.3571 21.1801 34.3849 21.2003C34.405 21.2146 34.4252 21.2293 34.4449 21.2441C34.4721 21.2647 34.4994 21.2854 34.5261 21.3066L34.5836 21.3523C34.6103 21.3745 34.6366 21.3966 34.6628 21.4193C34.681 21.435 34.6991 21.4508 34.7168 21.4665C34.7435 21.4906 34.7697 21.5152 34.7955 21.5398C34.8116 21.5551 34.8282 21.5703 34.8444 21.5861C34.8731 21.6146 34.9009 21.6437 34.9286 21.6727C34.9412 21.6855 34.9538 21.6978 34.966 21.7111C35.0053 21.7534 35.0441 21.7967 35.0815 21.841C35.0865 21.8469 35.091 21.8528 35.0956 21.8587C35.1279 21.8976 35.1596 21.9364 35.1909 21.9768C35.203 21.9925 35.2146 22.0088 35.2262 22.025C35.2494 22.0555 35.2721 22.086 35.2938 22.117C35.3069 22.1357 35.3195 22.1549 35.3327 22.1741C35.3523 22.2037 35.3715 22.2327 35.3907 22.2622C35.4033 22.2829 35.4159 22.3035 35.4285 22.3242C35.4462 22.3533 35.4638 22.3828 35.4805 22.4123C35.4926 22.434 35.5047 22.4556 35.5163 22.4773C35.5324 22.5068 35.5486 22.5373 35.5637 22.5673C35.5753 22.5895 35.5859 22.6111 35.597 22.6333C35.6121 22.6647 35.6262 22.6957 35.6404 22.7277C35.6504 22.7494 35.6605 22.771 35.6696 22.7932C35.6842 22.8266 35.6974 22.8606 35.7105 22.8946C35.719 22.9152 35.7271 22.9359 35.7352 22.9566C35.7493 22.9954 35.7629 23.0348 35.776 23.0742C35.7816 23.0909 35.7876 23.1071 35.7927 23.1234C35.8103 23.1795 35.827 23.2361 35.8421 23.2936C35.8451 23.3035 35.8472 23.3133 35.8497 23.3232C35.8618 23.3709 35.8734 23.4186 35.8835 23.4669C35.888 23.4875 35.8916 23.5082 35.8956 23.5289C35.9016 23.5594 35.9082 23.5894 35.9132 23.6204H38.5059C38.6346 23.6204 38.739 23.5185 38.739 23.393V20.8155H37.7554V19.5852H38.739V18.0046C38.739 17.2596 38.281 16.5997 37.5723 16.3232L35.2126 15.4025H26.2799V23.6204ZM26.2799 14.1722H34.3798L32.1069 8.97526C31.8532 8.39557 31.2721 8.02109 30.626 8.02109H26.2799V14.1722ZM10.3153 26.7698C11.7478 26.7698 12.913 25.633 12.913 24.2355C12.913 22.838 11.7478 21.7012 10.3153 21.7012C10.2704 21.7012 10.226 21.7022 10.1816 21.7047C8.98815 21.7637 8.00454 22.6131 7.77049 23.7252C7.76192 23.7665 7.75385 23.8084 7.74729 23.8502C7.73418 23.9338 7.7256 24.019 7.72106 24.1051C7.71854 24.1484 7.71753 24.1917 7.71753 24.2355C7.71753 25.633 8.88272 26.7698 10.3153 26.7698ZM1.26103 19.5852H2.24464V20.8155H1.26103V23.5549C1.26103 23.5909 1.2913 23.6204 1.32812 23.6204H6.50795C6.51299 23.5899 6.51955 23.5599 6.5256 23.5298C6.52963 23.5087 6.53316 23.4875 6.5377 23.4664C6.54779 23.4191 6.55889 23.3724 6.571 23.3261C6.57402 23.3153 6.57604 23.304 6.57907 23.2931C6.5942 23.2361 6.61084 23.18 6.6285 23.1239C6.63404 23.1066 6.6401 23.0894 6.64565 23.0727C6.65876 23.0338 6.67188 22.9949 6.686 22.957C6.69407 22.9354 6.70265 22.9147 6.71072 22.8936C6.72383 22.8601 6.73745 22.8266 6.75107 22.7937C6.76066 22.771 6.77074 22.7489 6.78083 22.7268C6.79496 22.6957 6.80908 22.6647 6.82421 22.6337C6.8348 22.6111 6.84641 22.589 6.8575 22.5668C6.87263 22.5368 6.88827 22.5073 6.90442 22.4773C6.91652 22.4556 6.92862 22.434 6.94073 22.4123C6.95788 22.3828 6.97503 22.3537 6.99269 22.3247C7.00529 22.3036 7.01791 22.2829 7.03102 22.2622C7.04969 22.2327 7.06886 22.2037 7.08853 22.1751C7.10114 22.1554 7.11425 22.1357 7.12737 22.117C7.14906 22.086 7.17175 22.056 7.19395 22.026C7.20605 22.0093 7.21816 21.9925 7.23077 21.9763C7.26103 21.9374 7.29181 21.8991 7.32358 21.8612C7.32913 21.8543 7.33418 21.8474 7.33972 21.841C7.37756 21.7967 7.41589 21.7534 7.45523 21.7111C7.46784 21.6978 7.48045 21.685 7.49306 21.6717C7.52081 21.6427 7.54855 21.6141 7.5768 21.5861C7.59294 21.5703 7.60958 21.5551 7.62623 21.5393C7.65195 21.5147 7.67768 21.4906 7.70441 21.4665C7.72207 21.4508 7.74073 21.435 7.75889 21.4188C7.78461 21.3966 7.81084 21.3745 7.83758 21.3528C7.85675 21.3371 7.87592 21.3213 7.89559 21.3061C7.92182 21.2854 7.94905 21.2647 7.97629 21.2441C7.99596 21.2293 8.01614 21.2146 8.03632 21.2003C8.06406 21.1801 8.09231 21.1609 8.12055 21.1417C8.14124 21.1279 8.16141 21.1142 8.18159 21.1009C8.21135 21.0812 8.24161 21.0625 8.27188 21.0443C8.29206 21.032 8.31173 21.0197 8.3319 21.0079C8.36519 20.9882 8.39899 20.9695 8.43329 20.9508C8.45095 20.941 8.4681 20.9311 8.48625 20.9218C8.53417 20.8962 8.5826 20.8721 8.63203 20.8489C8.63607 20.847 8.6401 20.8445 8.64464 20.8425C8.69811 20.8174 8.75258 20.7933 8.80706 20.7707C8.82471 20.7633 8.84287 20.7569 8.86053 20.7495C8.89836 20.7348 8.93569 20.72 8.97402 20.7057C8.99571 20.6979 9.0179 20.691 9.0401 20.6831C9.0744 20.6713 9.10921 20.6595 9.14451 20.6486C9.16822 20.6413 9.19243 20.6344 9.21614 20.6275C9.25044 20.6176 9.28474 20.6078 9.31904 20.5989C9.34376 20.5925 9.36847 20.5862 9.39369 20.5802C9.42799 20.5719 9.4623 20.5645 9.4971 20.5571C9.52232 20.5517 9.54754 20.5463 9.57327 20.5414C9.60857 20.535 9.64388 20.5286 9.6797 20.5232C9.70492 20.5187 9.72964 20.5148 9.75536 20.5114C9.79218 20.5059 9.82951 20.5015 9.86734 20.4971C9.89105 20.4946 9.91526 20.4912 9.93947 20.4892C9.98083 20.4853 10.0227 20.4823 10.0646 20.4799C10.0852 20.4784 10.1054 20.4764 10.1261 20.4759C10.1892 20.4725 10.2517 20.471 10.3153 20.471C10.3788 20.471 10.4414 20.4725 10.5044 20.4759C10.5251 20.4764 10.5453 20.4784 10.566 20.4799C10.6078 20.4823 10.6497 20.4853 10.691 20.4892C10.7153 20.4912 10.7395 20.4946 10.7632 20.4971C10.801 20.5015 10.8383 20.5059 10.8752 20.5114C10.9009 20.5148 10.9256 20.5187 10.9508 20.5232C10.9866 20.5286 11.0219 20.535 11.0573 20.5414C11.083 20.5463 11.1082 20.5517 11.1334 20.5571C11.1682 20.5645 11.2025 20.5719 11.2368 20.5802C11.262 20.5862 11.2868 20.5925 11.3115 20.5989C11.3458 20.6078 11.3801 20.6176 11.4144 20.6275C11.4381 20.6344 11.4623 20.6413 11.486 20.6486C11.5213 20.6595 11.5561 20.6713 11.5904 20.6831C11.6126 20.691 11.6348 20.6979 11.6565 20.7057C11.6948 20.72 11.7322 20.7348 11.77 20.7495C11.7876 20.7569 11.8058 20.7633 11.8235 20.7707C11.8779 20.7933 11.9324 20.8174 11.9859 20.8425C11.9904 20.8445 11.9945 20.8465 11.9985 20.8489C12.0479 20.8721 12.0963 20.8962 12.1443 20.9218C12.1624 20.9311 12.1796 20.941 12.1972 20.9508C12.231 20.9695 12.2653 20.9882 12.2986 21.0079C12.3188 21.0197 12.3385 21.032 12.3586 21.0443C12.3889 21.0625 12.4192 21.0812 12.4489 21.1009C12.4691 21.1142 12.4893 21.1279 12.51 21.1417C12.5382 21.1609 12.5665 21.1801 12.5942 21.2003C12.6144 21.2146 12.6346 21.2293 12.6542 21.2441C12.6815 21.2647 12.7087 21.2854 12.7349 21.3061C12.7546 21.3213 12.7738 21.3371 12.7929 21.3528C12.8197 21.3745 12.8459 21.3966 12.8716 21.4193C12.8898 21.435 12.9084 21.4508 12.9261 21.4665C12.9528 21.4906 12.9786 21.5152 13.0048 21.5398C13.0209 21.5551 13.0376 21.5703 13.0537 21.5861C13.082 21.6141 13.1102 21.6432 13.138 21.6722C13.1501 21.685 13.1632 21.6978 13.1753 21.7111C13.2146 21.7534 13.253 21.7967 13.2908 21.841C13.2958 21.8474 13.3009 21.8538 13.3059 21.8597C13.3377 21.8981 13.3695 21.9369 13.3997 21.9768C13.4124 21.9925 13.424 22.0088 13.4361 22.025C13.4588 22.0555 13.4815 22.086 13.5032 22.117C13.5163 22.1357 13.5289 22.1554 13.542 22.1746C13.5617 22.2037 13.5808 22.2327 13.5995 22.2622C13.6126 22.2829 13.6252 22.3035 13.6378 22.3242C13.6555 22.3533 13.6731 22.3828 13.6898 22.4123C13.7019 22.434 13.714 22.4556 13.7256 22.4773C13.7422 22.5068 13.7579 22.5373 13.7735 22.5673C13.7846 22.5895 13.7952 22.6111 13.8063 22.6333C13.8214 22.6647 13.8356 22.6962 13.8497 22.7277C13.8598 22.7494 13.8699 22.771 13.8789 22.7932C13.8936 22.8266 13.9067 22.8606 13.9203 22.8946C13.9284 22.9152 13.9364 22.9359 13.9445 22.9566C13.9591 22.9959 13.9723 23.0353 13.9854 23.0751C13.9909 23.0914 13.997 23.1071 14.002 23.1234C14.0197 23.1795 14.0363 23.2366 14.052 23.2936C14.054 23.3025 14.056 23.3118 14.058 23.3207C14.0706 23.3694 14.0822 23.4181 14.0928 23.4673C14.0974 23.487 14.1009 23.5072 14.1044 23.5274C14.1105 23.5584 14.117 23.5889 14.1226 23.6204H25.0189V5.33919C25.0189 4.99965 25.3014 4.72408 25.6494 4.72408H34.7657C34.7813 4.72408 34.8293 4.72408 34.859 4.66946C34.8888 4.61533 34.8625 4.57645 34.8535 4.56415L32.8807 1.67656C32.6895 1.39705 32.3702 1.23023 32.0257 1.23023H15.5612C15.4694 1.23023 15.3831 1.26517 15.318 1.32865L14.2749 2.34629C13.9718 2.64204 13.5687 2.80492 13.14 2.80492H2.28197C1.71904 2.80492 1.26103 3.25174 1.26103 3.80091V19.5852Z" fill="#101828"></path>
    <path d="M4.84372 6.2981H12.5562C13.4475 6.2981 14.1729 7.00572 14.1729 7.87525V11.4631C14.1729 12.3326 13.4475 13.0402 12.5562 13.0402H4.84321C3.95192 13.0402 3.22657 12.3326 3.22657 11.4631V7.87525C3.22707 7.00572 3.95242 6.2981 4.84372 6.2981ZM4.48811 11.4626C4.48811 11.6535 4.6475 11.8095 4.84372 11.8095H12.5562C12.7524 11.8095 12.9118 11.654 12.9118 11.4626V7.87476C12.9118 7.68382 12.7524 7.52783 12.5562 7.52783H4.84321C4.647 7.52783 4.4876 7.68333 4.4876 7.87476L4.48811 11.4626Z" fill="#101828"></path>
  </symbol>
  <symbol fill="none" xmlns="http://www.w3.org/2000/svg" viewBox="0 0 40 29" id="icon-fullyIntegrated">
    <path d="M2.28197 2.07469H13.14C13.2318 2.07469 13.318 2.03975 13.3831 1.97627L14.4262 0.95863C14.7294 0.662883 15.1324 0.5 15.5612 0.5H32.0257C32.7924 0.5 33.5042 0.871529 33.9299 1.49402L35.9032 4.38162C36.1831 4.79153 36.2088 5.31561 35.9707 5.75012C35.7327 6.18464 35.2706 6.45431 34.7657 6.45431H26.2799V7.29086H30.626C31.7781 7.29086 32.8146 7.95863 33.2666 8.99251L35.8113 14.811L38.0404 15.681C39.2308 16.1456 40 17.2537 40 18.5046V23.893C40 24.6966 39.3296 25.3506 38.5059 25.3506H35.9122C35.6106 27.1344 34.0187 28.5 32.1059 28.5C30.1932 28.5 28.6013 27.1344 28.2996 25.3506H14.1216C13.8199 27.1344 12.228 28.5 10.3153 28.5C8.40252 28.5 6.81059 27.1344 6.50895 25.3506H1.32812C0.595713 25.3506 0 24.7695 0 24.0549V4.30091C0 3.07315 1.02346 2.07469 2.28197 2.07469ZM32.1059 27.2698C33.5385 27.2698 34.7037 26.133 34.7037 24.7355C34.7037 23.338 33.5385 22.2012 32.1059 22.2012C30.6734 22.2012 29.5082 23.338 29.5082 24.7355C29.5082 26.133 30.6734 27.2698 32.1059 27.2698ZM26.2799 24.1204H28.2986C28.3037 24.0894 28.3102 24.0594 28.3163 24.0289C28.3203 24.0082 28.3238 23.9875 28.3284 23.9669C28.3385 23.9186 28.3501 23.8709 28.3622 23.8232C28.3647 23.8133 28.3667 23.8035 28.3697 23.7936C28.3849 23.7361 28.4015 23.6795 28.4192 23.6234C28.4242 23.6071 28.4303 23.5909 28.4358 23.5742C28.4489 23.5348 28.4625 23.4954 28.4767 23.4566C28.4847 23.4359 28.4928 23.4152 28.5014 23.3946C28.5145 23.3606 28.5276 23.3266 28.5422 23.2932C28.5513 23.271 28.5614 23.2494 28.5715 23.2277C28.5856 23.1957 28.5997 23.1647 28.6149 23.1333C28.626 23.1111 28.6366 23.0895 28.6482 23.0673C28.6633 23.0373 28.6794 23.0068 28.6956 22.9773C28.7072 22.9556 28.7193 22.934 28.7314 22.9123C28.748 22.8828 28.7657 22.8533 28.7834 22.8242C28.796 22.8035 28.8086 22.7829 28.8212 22.7622C28.8404 22.7327 28.8595 22.7037 28.8792 22.6741C28.8923 22.6549 28.9049 22.6357 28.918 22.617C28.9397 22.586 28.9624 22.5555 28.9856 22.525C28.9972 22.5088 29.0088 22.4925 29.0209 22.4768C29.0522 22.4364 29.084 22.3976 29.1163 22.3587C29.1208 22.3528 29.1253 22.3469 29.1304 22.341C29.1677 22.2967 29.2066 22.2534 29.2459 22.2111C29.258 22.1978 29.2706 22.1855 29.2832 22.1727C29.311 22.1437 29.3387 22.1146 29.3675 22.0861C29.3836 22.0703 29.4003 22.0551 29.4164 22.0398C29.4421 22.0152 29.4683 21.9906 29.4951 21.9665C29.5127 21.9508 29.5309 21.935 29.5491 21.9193C29.5753 21.8966 29.6015 21.8745 29.6282 21.8523L29.6858 21.8066C29.7125 21.7854 29.7397 21.7647 29.767 21.7441C29.7866 21.7293 29.8068 21.7146 29.827 21.7003C29.8547 21.6801 29.883 21.6609 29.9117 21.6412C29.9319 21.6279 29.9521 21.6142 29.9723 21.6009C30.002 21.5812 30.0328 21.5625 30.0631 21.5438C30.0827 21.532 30.1024 21.5197 30.1226 21.5079C30.1559 21.4882 30.1902 21.4695 30.2245 21.4508C30.2421 21.441 30.2593 21.4311 30.2764 21.4218C30.3253 21.3962 30.3743 21.3716 30.4237 21.3479C30.4277 21.3465 30.4313 21.3445 30.4353 21.3425C30.4888 21.3174 30.5433 21.2933 30.5977 21.2707C30.6154 21.2633 30.6335 21.2569 30.6512 21.2495C30.6885 21.2348 30.7264 21.22 30.7647 21.2057C30.7864 21.1979 30.8086 21.191 30.8303 21.1831C30.8651 21.1713 30.8999 21.1595 30.9352 21.1486C30.9589 21.1413 30.9826 21.1344 31.0068 21.1275C31.0411 21.1176 31.0754 21.1078 31.1097 21.0989C31.1344 21.0925 31.1591 21.0862 31.1844 21.0802C31.2187 21.0719 31.253 21.0645 31.2878 21.0571C31.313 21.0517 31.3382 21.0463 31.3639 21.0414C31.3992 21.035 31.4346 21.0286 31.4704 21.0232C31.4956 21.0187 31.5203 21.0148 31.546 21.0114C31.5828 21.0059 31.6202 21.0015 31.658 20.9971C31.6817 20.9946 31.7059 20.9912 31.7301 20.9892C31.7715 20.9853 31.8134 20.9823 31.8552 20.9799C31.8759 20.9784 31.8961 20.9764 31.9168 20.9759C31.9798 20.9725 32.0424 20.971 32.1059 20.971C32.1695 20.971 32.232 20.9725 32.2951 20.9759C32.3158 20.9764 32.3359 20.9784 32.3566 20.9799C32.3985 20.9823 32.4404 20.9853 32.4817 20.9892C32.5059 20.9912 32.5301 20.9946 32.5538 20.9971C32.5917 21.0015 32.629 21.0059 32.6658 21.0114C32.6916 21.0148 32.7163 21.0187 32.7415 21.0232C32.7773 21.0286 32.8126 21.035 32.8479 21.0414C32.8736 21.0463 32.8989 21.0517 32.9241 21.0571C32.9589 21.0645 32.9932 21.0719 33.0275 21.0802C33.0527 21.0862 33.0774 21.0925 33.1021 21.0989C33.1364 21.1078 33.1707 21.1176 33.205 21.1275C33.2293 21.1344 33.253 21.1413 33.2767 21.1486C33.312 21.1595 33.3468 21.1713 33.3816 21.1831C33.4033 21.191 33.4255 21.1979 33.4472 21.2057C33.4855 21.22 33.5233 21.2348 33.5607 21.2495C33.5783 21.2569 33.5965 21.2633 33.6141 21.2707C33.6686 21.2933 33.7231 21.3174 33.7765 21.3425C33.7806 21.3445 33.7841 21.3465 33.7881 21.3479C33.8376 21.3716 33.8865 21.3962 33.9354 21.4218C33.9526 21.4311 33.9697 21.441 33.9874 21.4508C34.0217 21.4695 34.056 21.4882 34.0893 21.5079C34.1095 21.5197 34.1291 21.532 34.1488 21.5438C34.1791 21.5625 34.2098 21.5812 34.2396 21.6009C34.2598 21.6142 34.2799 21.6279 34.3001 21.6412C34.3289 21.6609 34.3571 21.6801 34.3849 21.7003C34.405 21.7146 34.4252 21.7293 34.4449 21.7441C34.4721 21.7647 34.4994 21.7854 34.5261 21.8066L34.5836 21.8523C34.6103 21.8745 34.6366 21.8966 34.6628 21.9193C34.681 21.935 34.6991 21.9508 34.7168 21.9665C34.7435 21.9906 34.7697 22.0152 34.7955 22.0398C34.8116 22.0551 34.8282 22.0703 34.8444 22.0861C34.8731 22.1146 34.9009 22.1437 34.9286 22.1727C34.9412 22.1855 34.9538 22.1978 34.966 22.2111C35.0053 22.2534 35.0441 22.2967 35.0815 22.341C35.0865 22.3469 35.091 22.3528 35.0956 22.3587C35.1279 22.3976 35.1596 22.4364 35.1909 22.4768C35.203 22.4925 35.2146 22.5088 35.2262 22.525C35.2494 22.5555 35.2721 22.586 35.2938 22.617C35.3069 22.6357 35.3195 22.6549 35.3327 22.6741C35.3523 22.7037 35.3715 22.7327 35.3907 22.7622C35.4033 22.7829 35.4159 22.8035 35.4285 22.8242C35.4462 22.8533 35.4638 22.8828 35.4805 22.9123C35.4926 22.934 35.5047 22.9556 35.5163 22.9773C35.5324 23.0068 35.5486 23.0373 35.5637 23.0673C35.5753 23.0895 35.5859 23.1111 35.597 23.1333C35.6121 23.1647 35.6262 23.1957 35.6404 23.2277C35.6504 23.2494 35.6605 23.271 35.6696 23.2932C35.6842 23.3266 35.6974 23.3606 35.7105 23.3946C35.719 23.4152 35.7271 23.4359 35.7352 23.4566C35.7493 23.4954 35.7629 23.5348 35.776 23.5742C35.7816 23.5909 35.7876 23.6071 35.7927 23.6234C35.8103 23.6795 35.827 23.7361 35.8421 23.7936C35.8451 23.8035 35.8472 23.8133 35.8497 23.8232C35.8618 23.8709 35.8734 23.9186 35.8835 23.9669C35.888 23.9875 35.8916 24.0082 35.8956 24.0289C35.9016 24.0594 35.9082 24.0894 35.9132 24.1204H38.5059C38.6346 24.1204 38.739 24.0185 38.739 23.893V21.3155H37.7554V20.0852H38.739V18.5046C38.739 17.7596 38.281 17.0997 37.5723 16.8232L35.2126 15.9025H26.2799V24.1204ZM26.2799 14.6722H34.3798L32.1069 9.47526C31.8532 8.89557 31.2721 8.52109 30.626 8.52109H26.2799V14.6722ZM10.3153 27.2698C11.7478 27.2698 12.913 26.133 12.913 24.7355C12.913 23.338 11.7478 22.2012 10.3153 22.2012C10.2704 22.2012 10.226 22.2022 10.1816 22.2047C8.98814 22.2637 8.00454 23.1131 7.77049 24.2252C7.76192 24.2665 7.75385 24.3084 7.74729 24.3502C7.73418 24.4338 7.7256 24.519 7.72106 24.6051C7.71854 24.6484 7.71753 24.6917 7.71753 24.7355C7.71753 26.133 8.88272 27.2698 10.3153 27.2698ZM1.26103 20.0852H2.24464V21.3155H1.26103V24.0549C1.26103 24.0909 1.2913 24.1204 1.32812 24.1204H6.50795C6.51299 24.0899 6.51955 24.0599 6.5256 24.0298C6.52964 24.0087 6.53316 23.9875 6.5377 23.9664C6.54779 23.9191 6.55889 23.8724 6.571 23.8261C6.57402 23.8153 6.57604 23.804 6.57907 23.7931C6.5942 23.7361 6.61084 23.68 6.6285 23.6239C6.63405 23.6066 6.6401 23.5894 6.64565 23.5727C6.65876 23.5338 6.67188 23.4949 6.686 23.457C6.69407 23.4354 6.70265 23.4147 6.71072 23.3936C6.72383 23.3601 6.73745 23.3266 6.75107 23.2937C6.76066 23.271 6.77074 23.2489 6.78083 23.2268C6.79495 23.1957 6.80908 23.1647 6.82421 23.1337C6.8348 23.1111 6.8464 23.089 6.8575 23.0668C6.87263 23.0368 6.88827 23.0073 6.90442 22.9773C6.91652 22.9556 6.92863 22.934 6.94073 22.9123C6.95788 22.8828 6.97503 22.8537 6.99269 22.8247C7.0053 22.8035 7.01791 22.7829 7.03102 22.7622C7.04968 22.7327 7.06886 22.7037 7.08853 22.6751C7.10114 22.6554 7.11425 22.6357 7.12737 22.617C7.14905 22.586 7.17175 22.556 7.19395 22.526C7.20605 22.5093 7.21816 22.4925 7.23077 22.4763C7.26103 22.4374 7.2918 22.3991 7.32358 22.3612C7.32913 22.3543 7.33417 22.3474 7.33972 22.341C7.37755 22.2967 7.41589 22.2534 7.45523 22.2111C7.46784 22.1978 7.48045 22.185 7.49306 22.1717C7.52081 22.1427 7.54855 22.1141 7.5768 22.0861C7.59294 22.0703 7.60958 22.0551 7.62623 22.0393C7.65195 22.0147 7.67768 21.9906 7.70441 21.9665C7.72207 21.9508 7.74073 21.935 7.75889 21.9188C7.78462 21.8966 7.81084 21.8745 7.83758 21.8528C7.85675 21.8371 7.87592 21.8213 7.89559 21.8061C7.92182 21.7854 7.94905 21.7647 7.97629 21.7441C7.99596 21.7293 8.01614 21.7146 8.03632 21.7003C8.06406 21.6801 8.09231 21.6609 8.12055 21.6417C8.14123 21.6279 8.16141 21.6142 8.18159 21.6009C8.21135 21.5812 8.24161 21.5625 8.27188 21.5443C8.29206 21.532 8.31173 21.5197 8.3319 21.5079C8.36519 21.4882 8.39899 21.4695 8.43329 21.4508C8.45094 21.441 8.46809 21.4311 8.48625 21.4218C8.53417 21.3962 8.5826 21.3721 8.63203 21.3489C8.63607 21.347 8.6401 21.3445 8.64464 21.3425C8.69811 21.3174 8.75258 21.2933 8.80706 21.2707C8.82471 21.2633 8.84287 21.2569 8.86053 21.2495C8.89836 21.2348 8.93569 21.22 8.97402 21.2057C8.99571 21.1979 9.01791 21.191 9.0401 21.1831C9.0744 21.1713 9.10921 21.1595 9.14451 21.1486C9.16822 21.1413 9.19244 21.1344 9.21614 21.1275C9.25044 21.1176 9.28474 21.1078 9.31904 21.0989C9.34376 21.0925 9.36847 21.0862 9.39369 21.0802C9.42799 21.0719 9.4623 21.0645 9.4971 21.0571C9.52232 21.0517 9.54754 21.0463 9.57327 21.0414C9.60857 21.035 9.64389 21.0286 9.6797 21.0232C9.70492 21.0187 9.72963 21.0148 9.75536 21.0114C9.79218 21.0059 9.82951 21.0015 9.86734 20.9971C9.89105 20.9946 9.91526 20.9912 9.93947 20.9892C9.98083 20.9853 10.0227 20.9823 10.0646 20.9799C10.0852 20.9784 10.1054 20.9764 10.1261 20.9759C10.1892 20.9725 10.2517 20.971 10.3153 20.971C10.3788 20.971 10.4414 20.9725 10.5044 20.9759C10.5251 20.9764 10.5453 20.9784 10.566 20.9799C10.6078 20.9823 10.6497 20.9853 10.691 20.9892C10.7153 20.9912 10.7395 20.9946 10.7632 20.9971C10.801 21.0015 10.8383 21.0059 10.8752 21.0114C10.9009 21.0148 10.9256 21.0187 10.9508 21.0232C10.9866 21.0286 11.0219 21.035 11.0573 21.0414C11.083 21.0463 11.1082 21.0517 11.1334 21.0571C11.1682 21.0645 11.2025 21.0719 11.2368 21.0802C11.262 21.0862 11.2868 21.0925 11.3115 21.0989C11.3458 21.1078 11.3801 21.1176 11.4144 21.1275C11.4381 21.1344 11.4623 21.1413 11.486 21.1486C11.5213 21.1595 11.5561 21.1713 11.5904 21.1831C11.6126 21.191 11.6348 21.1979 11.6565 21.2057C11.6948 21.22 11.7322 21.2348 11.77 21.2495C11.7876 21.2569 11.8058 21.2633 11.8235 21.2707C11.8779 21.2933 11.9324 21.3174 11.9859 21.3425C11.9904 21.3445 11.9945 21.3465 11.9985 21.3489C12.0479 21.3721 12.0963 21.3962 12.1443 21.4218C12.1624 21.4311 12.1796 21.441 12.1972 21.4508C12.231 21.4695 12.2653 21.4882 12.2986 21.5079C12.3188 21.5197 12.3385 21.532 12.3586 21.5443C12.3889 21.5625 12.4192 21.5812 12.4489 21.6009C12.4691 21.6142 12.4893 21.6279 12.51 21.6417C12.5382 21.6609 12.5665 21.6801 12.5942 21.7003C12.6144 21.7146 12.6346 21.7293 12.6542 21.7441C12.6815 21.7647 12.7087 21.7854 12.7349 21.8061C12.7546 21.8213 12.7738 21.8371 12.7929 21.8528C12.8197 21.8745 12.8459 21.8966 12.8716 21.9193C12.8898 21.935 12.9084 21.9508 12.9261 21.9665C12.9528 21.9906 12.9786 22.0152 13.0048 22.0398C13.0209 22.0551 13.0376 22.0703 13.0537 22.0861C13.082 22.1141 13.1102 22.1432 13.138 22.1722C13.1501 22.185 13.1632 22.1978 13.1753 22.2111C13.2146 22.2534 13.253 22.2967 13.2908 22.341C13.2958 22.3474 13.3009 22.3538 13.3059 22.3597C13.3377 22.3981 13.3695 22.4369 13.3997 22.4768C13.4124 22.4925 13.424 22.5088 13.4361 22.525C13.4588 22.5555 13.4815 22.586 13.5032 22.617C13.5163 22.6357 13.5289 22.6554 13.542 22.6746C13.5617 22.7037 13.5808 22.7327 13.5995 22.7622C13.6126 22.7829 13.6252 22.8035 13.6378 22.8242C13.6555 22.8533 13.6731 22.8828 13.6898 22.9123C13.7019 22.934 13.714 22.9556 13.7256 22.9773C13.7422 23.0068 13.7579 23.0373 13.7735 23.0673C13.7846 23.0895 13.7952 23.1111 13.8063 23.1333C13.8214 23.1647 13.8356 23.1962 13.8497 23.2277C13.8598 23.2494 13.8699 23.271 13.8789 23.2932C13.8936 23.3266 13.9067 23.3606 13.9203 23.3946C13.9284 23.4152 13.9364 23.4359 13.9445 23.4566C13.9591 23.4959 13.9723 23.5353 13.9854 23.5751C13.9909 23.5914 13.997 23.6071 14.002 23.6234C14.0197 23.6795 14.0363 23.7366 14.052 23.7936C14.054 23.8025 14.056 23.8118 14.058 23.8207C14.0706 23.8694 14.0822 23.9181 14.0928 23.9673C14.0974 23.987 14.1009 24.0072 14.1044 24.0274C14.1105 24.0584 14.117 24.0889 14.1226 24.1204H25.0189V5.83919C25.0189 5.49965 25.3014 5.22408 25.6494 5.22408H34.7657C34.7813 5.22408 34.8293 5.22408 34.859 5.16946C34.8888 5.11533 34.8625 5.07645 34.8535 5.06415L32.8807 2.17656C32.6895 1.89705 32.3702 1.73023 32.0257 1.73023H15.5612C15.4694 1.73023 15.3831 1.76517 15.318 1.82865L14.2749 2.84629C13.9718 3.14204 13.5687 3.30492 13.14 3.30492H2.28197C1.71904 3.30492 1.26103 3.75174 1.26103 4.30091V20.0852Z" fill="#101828"></path>
    <path d="M17.6011 6.7981H21.5895C22.395 6.7981 23.0508 7.43732 23.0508 8.22368V21.3886C23.0508 21.7281 22.7683 22.0037 22.4203 22.0037H16.7708C16.4228 22.0037 16.1403 21.7281 16.1403 21.3886V8.22368C16.1398 7.43732 16.795 6.7981 17.6011 6.7981ZM17.4008 20.7735H21.7892V13.5397H17.4008V20.7735ZM17.4008 12.3095H21.7892V8.22368C21.7892 8.11592 21.6995 8.02832 21.589 8.02832H17.6006C17.4901 8.02832 17.4003 8.11592 17.4003 8.22368L17.4008 12.3095Z" fill="#101828"></path>
  </symbol>
  <symbol fill="none" xmlns="http://www.w3.org/2000/svg" viewBox="0 0 40 29" id="icon-alcove">
    <path d="M2.28197 2.07469H13.14C13.2318 2.07469 13.318 2.03975 13.3831 1.97627L14.4262 0.95863C14.7294 0.662883 15.1324 0.5 15.5612 0.5H32.0257C32.7924 0.5 33.5042 0.871529 33.9299 1.49402L35.9032 4.38162C36.1831 4.79153 36.2088 5.31561 35.9707 5.75012C35.7327 6.18464 35.2706 6.45431 34.7657 6.45431H26.2799V7.29086H30.626C31.7781 7.29086 32.8146 7.95863 33.2666 8.99251L35.8113 14.811L38.0404 15.681C39.2308 16.1456 40 17.2537 40 18.5046V23.893C40 24.6966 39.3296 25.3506 38.5059 25.3506H35.9122C35.6106 27.1344 34.0187 28.5 32.1059 28.5C30.1932 28.5 28.6013 27.1344 28.2996 25.3506H14.1216C13.8199 27.1344 12.228 28.5 10.3153 28.5C8.40252 28.5 6.81059 27.1344 6.50895 25.3506H1.32812C0.595715 25.3506 0 24.7695 0 24.0549V4.30091C0 3.07315 1.02345 2.07469 2.28197 2.07469ZM32.1059 27.2698C33.5385 27.2698 34.7037 26.133 34.7037 24.7355C34.7037 23.338 33.5385 22.2012 32.1059 22.2012C30.6734 22.2012 29.5082 23.338 29.5082 24.7355C29.5082 26.133 30.6734 27.2698 32.1059 27.2698ZM26.2799 24.1204H28.2986C28.3037 24.0894 28.3102 24.0594 28.3163 24.0289C28.3203 24.0082 28.3238 23.9875 28.3284 23.9669C28.3385 23.9186 28.3501 23.8709 28.3622 23.8232C28.3647 23.8133 28.3667 23.8035 28.3697 23.7936C28.3849 23.7361 28.4015 23.6795 28.4192 23.6234C28.4242 23.6071 28.4303 23.5909 28.4358 23.5742C28.4489 23.5348 28.4625 23.4954 28.4767 23.4566C28.4847 23.4359 28.4928 23.4152 28.5014 23.3946C28.5145 23.3606 28.5276 23.3266 28.5422 23.2932C28.5513 23.271 28.5614 23.2494 28.5715 23.2277C28.5856 23.1957 28.5997 23.1647 28.6149 23.1333C28.626 23.1111 28.6366 23.0895 28.6482 23.0673C28.6633 23.0373 28.6794 23.0068 28.6956 22.9773C28.7072 22.9556 28.7193 22.934 28.7314 22.9123C28.748 22.8828 28.7657 22.8533 28.7834 22.8242C28.796 22.8035 28.8086 22.7829 28.8212 22.7622C28.8404 22.7327 28.8595 22.7037 28.8792 22.6741C28.8923 22.6549 28.9049 22.6357 28.918 22.617C28.9397 22.586 28.9624 22.5555 28.9856 22.525C28.9972 22.5088 29.0088 22.4925 29.0209 22.4768C29.0522 22.4364 29.084 22.3976 29.1163 22.3587C29.1208 22.3528 29.1253 22.3469 29.1304 22.341C29.1677 22.2967 29.2066 22.2534 29.2459 22.2111C29.258 22.1978 29.2706 22.1855 29.2832 22.1727C29.311 22.1437 29.3387 22.1146 29.3675 22.0861C29.3836 22.0703 29.4003 22.0551 29.4164 22.0398C29.4421 22.0152 29.4683 21.9906 29.4951 21.9665C29.5127 21.9508 29.5309 21.935 29.5491 21.9193C29.5753 21.8966 29.6015 21.8745 29.6282 21.8523L29.6858 21.8066C29.7125 21.7854 29.7397 21.7647 29.767 21.7441C29.7866 21.7293 29.8068 21.7146 29.827 21.7003C29.8547 21.6801 29.883 21.6609 29.9117 21.6412C29.9319 21.6279 29.9521 21.6142 29.9723 21.6009C30.002 21.5812 30.0328 21.5625 30.0631 21.5438C30.0827 21.532 30.1024 21.5197 30.1226 21.5079C30.1559 21.4882 30.1902 21.4695 30.2245 21.4508C30.2421 21.441 30.2593 21.4311 30.2764 21.4218C30.3253 21.3962 30.3743 21.3716 30.4237 21.3479C30.4277 21.3465 30.4313 21.3445 30.4353 21.3425C30.4888 21.3174 30.5433 21.2933 30.5977 21.2707C30.6154 21.2633 30.6335 21.2569 30.6512 21.2495C30.6885 21.2348 30.7264 21.22 30.7647 21.2057C30.7864 21.1979 30.8086 21.191 30.8303 21.1831C30.8651 21.1713 30.8999 21.1595 30.9352 21.1486C30.9589 21.1413 30.9826 21.1344 31.0068 21.1275C31.0411 21.1176 31.0754 21.1078 31.1097 21.0989C31.1344 21.0925 31.1591 21.0862 31.1844 21.0802C31.2187 21.0719 31.253 21.0645 31.2878 21.0571C31.313 21.0517 31.3382 21.0463 31.3639 21.0414C31.3992 21.035 31.4346 21.0286 31.4704 21.0232C31.4956 21.0187 31.5203 21.0148 31.546 21.0114C31.5828 21.0059 31.6202 21.0015 31.658 20.9971C31.6817 20.9946 31.7059 20.9912 31.7301 20.9892C31.7715 20.9853 31.8134 20.9823 31.8552 20.9799C31.8759 20.9784 31.8961 20.9764 31.9168 20.9759C31.9798 20.9725 32.0424 20.971 32.1059 20.971C32.1695 20.971 32.232 20.9725 32.2951 20.9759C32.3158 20.9764 32.3359 20.9784 32.3566 20.9799C32.3985 20.9823 32.4404 20.9853 32.4817 20.9892C32.5059 20.9912 32.5301 20.9946 32.5538 20.9971C32.5917 21.0015 32.629 21.0059 32.6658 21.0114C32.6916 21.0148 32.7163 21.0187 32.7415 21.0232C32.7773 21.0286 32.8126 21.035 32.8479 21.0414C32.8736 21.0463 32.8989 21.0517 32.9241 21.0571C32.9589 21.0645 32.9932 21.0719 33.0275 21.0802C33.0527 21.0862 33.0774 21.0925 33.1021 21.0989C33.1364 21.1078 33.1707 21.1176 33.205 21.1275C33.2293 21.1344 33.253 21.1413 33.2767 21.1486C33.312 21.1595 33.3468 21.1713 33.3816 21.1831C33.4033 21.191 33.4255 21.1979 33.4472 21.2057C33.4855 21.22 33.5233 21.2348 33.5607 21.2495C33.5783 21.2569 33.5965 21.2633 33.6141 21.2707C33.6686 21.2933 33.7231 21.3174 33.7765 21.3425C33.7806 21.3445 33.7841 21.3465 33.7881 21.3479C33.8376 21.3716 33.8865 21.3962 33.9354 21.4218C33.9526 21.4311 33.9697 21.441 33.9874 21.4508C34.0217 21.4695 34.056 21.4882 34.0893 21.5079C34.1095 21.5197 34.1291 21.532 34.1488 21.5438C34.1791 21.5625 34.2098 21.5812 34.2396 21.6009C34.2598 21.6142 34.2799 21.6279 34.3001 21.6412C34.3289 21.6609 34.3571 21.6801 34.3849 21.7003C34.405 21.7146 34.4252 21.7293 34.4449 21.7441C34.4721 21.7647 34.4994 21.7854 34.5261 21.8066L34.5836 21.8523C34.6103 21.8745 34.6366 21.8966 34.6628 21.9193C34.681 21.935 34.6991 21.9508 34.7168 21.9665C34.7435 21.9906 34.7697 22.0152 34.7955 22.0398C34.8116 22.0551 34.8282 22.0703 34.8444 22.0861C34.8731 22.1146 34.9009 22.1437 34.9286 22.1727C34.9412 22.1855 34.9538 22.1978 34.966 22.2111C35.0053 22.2534 35.0441 22.2967 35.0815 22.341C35.0865 22.3469 35.091 22.3528 35.0956 22.3587C35.1279 22.3976 35.1596 22.4364 35.1909 22.4768C35.203 22.4925 35.2146 22.5088 35.2262 22.525C35.2494 22.5555 35.2721 22.586 35.2938 22.617C35.3069 22.6357 35.3195 22.6549 35.3327 22.6741C35.3523 22.7037 35.3715 22.7327 35.3907 22.7622C35.4033 22.7829 35.4159 22.8035 35.4285 22.8242C35.4462 22.8533 35.4638 22.8828 35.4805 22.9123C35.4926 22.934 35.5047 22.9556 35.5163 22.9773C35.5324 23.0068 35.5486 23.0373 35.5637 23.0673C35.5753 23.0895 35.5859 23.1111 35.597 23.1333C35.6121 23.1647 35.6262 23.1957 35.6404 23.2277C35.6504 23.2494 35.6605 23.271 35.6696 23.2932C35.6842 23.3266 35.6974 23.3606 35.7105 23.3946C35.719 23.4152 35.7271 23.4359 35.7352 23.4566C35.7493 23.4954 35.7629 23.5348 35.776 23.5742C35.7816 23.5909 35.7876 23.6071 35.7927 23.6234C35.8103 23.6795 35.827 23.7361 35.8421 23.7936C35.8451 23.8035 35.8472 23.8133 35.8497 23.8232C35.8618 23.8709 35.8734 23.9186 35.8835 23.9669C35.888 23.9875 35.8916 24.0082 35.8956 24.0289C35.9016 24.0594 35.9082 24.0894 35.9132 24.1204H38.5059C38.6346 24.1204 38.739 24.0185 38.739 23.893V21.3155H37.7554V20.0852H38.739V18.5046C38.739 17.7596 38.281 17.0997 37.5723 16.8232L35.2126 15.9025H26.2799V24.1204ZM26.2799 14.6722H34.3798L32.1069 9.47526C31.8532 8.89557 31.2721 8.52109 30.626 8.52109H26.2799V14.6722ZM10.3153 27.2698C11.7478 27.2698 12.913 26.133 12.913 24.7355C12.913 23.338 11.7478 22.2012 10.3153 22.2012C10.2704 22.2012 10.226 22.2022 10.1816 22.2047C8.98815 22.2637 8.00454 23.1131 7.77049 24.2252C7.76192 24.2665 7.75385 24.3084 7.74729 24.3502C7.73418 24.4338 7.7256 24.519 7.72106 24.6051C7.71854 24.6484 7.71753 24.6917 7.71753 24.7355C7.71753 26.133 8.88272 27.2698 10.3153 27.2698ZM1.26103 20.0852H2.24464V21.3155H1.26103V24.0549C1.26103 24.0909 1.2913 24.1204 1.32812 24.1204H6.50795C6.51299 24.0899 6.51955 24.0599 6.5256 24.0298C6.52963 24.0087 6.53316 23.9875 6.5377 23.9664C6.54779 23.9191 6.55889 23.8724 6.571 23.8261C6.57402 23.8153 6.57604 23.804 6.57907 23.7931C6.5942 23.7361 6.61084 23.68 6.6285 23.6239C6.63404 23.6066 6.6401 23.5894 6.64565 23.5727C6.65876 23.5338 6.67188 23.4949 6.686 23.457C6.69407 23.4354 6.70265 23.4147 6.71072 23.3936C6.72383 23.3601 6.73745 23.3266 6.75107 23.2937C6.76066 23.271 6.77074 23.2489 6.78083 23.2268C6.79496 23.1957 6.80908 23.1647 6.82421 23.1337C6.8348 23.1111 6.84641 23.089 6.8575 23.0668C6.87263 23.0368 6.88827 23.0073 6.90442 22.9773C6.91652 22.9556 6.92862 22.934 6.94073 22.9123C6.95788 22.8828 6.97503 22.8537 6.99269 22.8247C7.00529 22.8036 7.01791 22.7829 7.03102 22.7622C7.04969 22.7327 7.06886 22.7037 7.08853 22.6751C7.10114 22.6554 7.11425 22.6357 7.12737 22.617C7.14906 22.586 7.17175 22.556 7.19395 22.526C7.20605 22.5093 7.21816 22.4925 7.23077 22.4763C7.26103 22.4374 7.29181 22.3991 7.32358 22.3612C7.32913 22.3543 7.33418 22.3474 7.33972 22.341C7.37756 22.2967 7.41589 22.2534 7.45523 22.2111C7.46784 22.1978 7.48045 22.185 7.49306 22.1717C7.52081 22.1427 7.54855 22.1141 7.5768 22.0861C7.59294 22.0703 7.60958 22.0551 7.62623 22.0393C7.65195 22.0147 7.67768 21.9906 7.70441 21.9665C7.72207 21.9508 7.74073 21.935 7.75889 21.9188C7.78461 21.8966 7.81084 21.8745 7.83758 21.8528C7.85675 21.8371 7.87592 21.8213 7.89559 21.8061C7.92182 21.7854 7.94905 21.7647 7.97629 21.7441C7.99596 21.7293 8.01614 21.7146 8.03632 21.7003C8.06406 21.6801 8.09231 21.6609 8.12055 21.6417C8.14124 21.6279 8.16141 21.6142 8.18159 21.6009C8.21135 21.5812 8.24161 21.5625 8.27188 21.5443C8.29206 21.532 8.31173 21.5197 8.3319 21.5079C8.36519 21.4882 8.39899 21.4695 8.43329 21.4508C8.45095 21.441 8.4681 21.4311 8.48625 21.4218C8.53417 21.3962 8.5826 21.3721 8.63203 21.3489C8.63607 21.347 8.6401 21.3445 8.64464 21.3425C8.69811 21.3174 8.75258 21.2933 8.80706 21.2707C8.82471 21.2633 8.84287 21.2569 8.86053 21.2495C8.89836 21.2348 8.93569 21.22 8.97402 21.2057C8.99571 21.1979 9.0179 21.191 9.0401 21.1831C9.0744 21.1713 9.10921 21.1595 9.14451 21.1486C9.16822 21.1413 9.19243 21.1344 9.21614 21.1275C9.25044 21.1176 9.28474 21.1078 9.31904 21.0989C9.34376 21.0925 9.36847 21.0862 9.39369 21.0802C9.42799 21.0719 9.4623 21.0645 9.4971 21.0571C9.52232 21.0517 9.54754 21.0463 9.57327 21.0414C9.60857 21.035 9.64388 21.0286 9.6797 21.0232C9.70492 21.0187 9.72964 21.0148 9.75536 21.0114C9.79218 21.0059 9.82951 21.0015 9.86734 20.9971C9.89105 20.9946 9.91526 20.9912 9.93947 20.9892C9.98083 20.9853 10.0227 20.9823 10.0646 20.9799C10.0852 20.9784 10.1054 20.9764 10.1261 20.9759C10.1892 20.9725 10.2517 20.971 10.3153 20.971C10.3788 20.971 10.4414 20.9725 10.5044 20.9759C10.5251 20.9764 10.5453 20.9784 10.566 20.9799C10.6078 20.9823 10.6497 20.9853 10.691 20.9892C10.7153 20.9912 10.7395 20.9946 10.7632 20.9971C10.801 21.0015 10.8383 21.0059 10.8752 21.0114C10.9009 21.0148 10.9256 21.0187 10.9508 21.0232C10.9866 21.0286 11.0219 21.035 11.0573 21.0414C11.083 21.0463 11.1082 21.0517 11.1334 21.0571C11.1682 21.0645 11.2025 21.0719 11.2368 21.0802C11.262 21.0862 11.2868 21.0925 11.3115 21.0989C11.3458 21.1078 11.3801 21.1176 11.4144 21.1275C11.4381 21.1344 11.4623 21.1413 11.486 21.1486C11.5213 21.1595 11.5561 21.1713 11.5904 21.1831C11.6126 21.191 11.6348 21.1979 11.6565 21.2057C11.6948 21.22 11.7322 21.2348 11.77 21.2495C11.7876 21.2569 11.8058 21.2633 11.8235 21.2707C11.8779 21.2933 11.9324 21.3174 11.9859 21.3425C11.9904 21.3445 11.9945 21.3465 11.9985 21.3489C12.0479 21.3721 12.0963 21.3962 12.1443 21.4218C12.1624 21.4311 12.1796 21.441 12.1972 21.4508C12.231 21.4695 12.2653 21.4882 12.2986 21.5079C12.3188 21.5197 12.3385 21.532 12.3586 21.5443C12.3889 21.5625 12.4192 21.5812 12.4489 21.6009C12.4691 21.6142 12.4893 21.6279 12.51 21.6417C12.5382 21.6609 12.5665 21.6801 12.5942 21.7003C12.6144 21.7146 12.6346 21.7293 12.6542 21.7441C12.6815 21.7647 12.7087 21.7854 12.7349 21.8061C12.7546 21.8213 12.7738 21.8371 12.7929 21.8528C12.8197 21.8745 12.8459 21.8966 12.8716 21.9193C12.8898 21.935 12.9084 21.9508 12.9261 21.9665C12.9528 21.9906 12.9786 22.0152 13.0048 22.0398C13.0209 22.0551 13.0376 22.0703 13.0537 22.0861C13.082 22.1141 13.1102 22.1432 13.138 22.1722C13.1501 22.185 13.1632 22.1978 13.1753 22.2111C13.2146 22.2534 13.253 22.2967 13.2908 22.341C13.2958 22.3474 13.3009 22.3538 13.3059 22.3597C13.3377 22.3981 13.3695 22.4369 13.3997 22.4768C13.4124 22.4925 13.424 22.5088 13.4361 22.525C13.4588 22.5555 13.4815 22.586 13.5032 22.617C13.5163 22.6357 13.5289 22.6554 13.542 22.6746C13.5617 22.7037 13.5808 22.7327 13.5995 22.7622C13.6126 22.7829 13.6252 22.8035 13.6378 22.8242C13.6555 22.8533 13.6731 22.8828 13.6898 22.9123C13.7019 22.934 13.714 22.9556 13.7256 22.9773C13.7422 23.0068 13.7579 23.0373 13.7735 23.0673C13.7846 23.0895 13.7952 23.1111 13.8063 23.1333C13.8214 23.1647 13.8356 23.1962 13.8497 23.2277C13.8598 23.2494 13.8699 23.271 13.8789 23.2932C13.8936 23.3266 13.9067 23.3606 13.9203 23.3946C13.9284 23.4152 13.9364 23.4359 13.9445 23.4566C13.9591 23.4959 13.9723 23.5353 13.9854 23.5751C13.9909 23.5914 13.997 23.6071 14.002 23.6234C14.0197 23.6795 14.0363 23.7366 14.052 23.7936C14.054 23.8025 14.056 23.8118 14.058 23.8207C14.0706 23.8694 14.0822 23.9181 14.0928 23.9673C14.0974 23.987 14.1009 24.0072 14.1044 24.0274C14.1105 24.0584 14.117 24.0889 14.1226 24.1204H25.0189V5.83919C25.0189 5.49965 25.3014 5.22408 25.6494 5.22408H34.7657C34.7813 5.22408 34.8293 5.22408 34.859 5.16946C34.8888 5.11533 34.8625 5.07645 34.8535 5.06415L32.8807 2.17656C32.6895 1.89705 32.3702 1.73023 32.0257 1.73023H15.5612C15.4694 1.73023 15.3831 1.76517 15.318 1.82865L14.2749 2.84629C13.9718 3.14204 13.5687 3.30492 13.14 3.30492H2.28197C1.71904 3.30492 1.26103 3.75174 1.26103 4.30091V20.0852Z" fill="#101828"></path>
    <path d="M17.6011 6.7981H21.5895C22.395 6.7981 23.0508 7.43732 23.0508 8.22368V21.3886C23.0508 21.7281 22.7683 22.0037 22.4203 22.0037H16.7708C16.4228 22.0037 16.1403 21.7281 16.1403 21.3886V8.22368C16.1398 7.43732 16.795 6.7981 17.6011 6.7981ZM17.4008 20.7735H21.7892V13.5397H17.4008V20.7735ZM17.4008 12.3095H21.7892V8.22368C21.7892 8.11592 21.6995 8.02832 21.589 8.02832H17.6006C17.4901 8.02832 17.4003 8.11592 17.4003 8.22368V12.3095H17.4008ZM4.84346 6.7981H12.556C13.4472 6.7981 14.1726 7.50572 14.1726 8.37525V11.9631C14.1726 12.8326 13.4472 13.5402 12.556 13.5402H4.84296C3.95166 13.5402 3.22631 12.8326 3.22631 11.9631V8.37525C3.22682 7.50572 3.95216 6.7981 4.84346 6.7981ZM4.48785 11.9626C4.48785 12.1535 4.64725 12.3095 4.84346 12.3095H12.556C12.7522 12.3095 12.9116 12.154 12.9116 11.9626V8.37476C12.9116 8.18382 12.7522 8.02783 12.556 8.02783H4.84296C4.64674 8.02783 4.48735 8.18333 4.48735 8.37476V11.9626H4.48785Z" fill="#101828"></path>
  </symbol>
    <symbol id="icon-heart" viewBox="0 0 33 32">
<path d="M28.453 6.147c-0.681-0.681-1.49-1.222-2.379-1.591s-1.844-0.559-2.807-0.559-1.917 0.19-2.807 0.559c-0.89 0.369-1.699 0.909-2.38 1.591l-1.413 1.413-1.413-1.413c-1.376-1.376-3.241-2.148-5.187-2.148s-3.811 0.773-5.187 2.148c-1.376 1.376-2.148 3.241-2.148 5.187s0.773 3.811 2.148 5.187l11.787 11.787 11.787-11.787c0.681-0.681 1.222-1.49 1.591-2.38s0.559-1.844 0.559-2.807-0.19-1.917-0.559-2.807c-0.369-0.89-0.909-1.699-1.591-2.38z"></path>
</symbol>
    <symbol id="icon-location" viewBox="0 0 32 32">
      <path d="m14.992.173-.624.072c-3.319.381-6.521 2.17-8.669 4.844a13.082 13.082 0 0 0-2.885 8.223c0 .767.066 1.519.192 2.249l-.011-.078c.775 4.62 4.196 9.607 9.765 14.235 1.159.963 2.434 1.912 2.781 2.069a1.277 1.277 0 0 0 .927-.003l-.009.003c.347-.157 1.619-1.104 2.783-2.069 2.876-2.389 5.262-4.966 6.912-7.465 2.46-3.724 3.41-7.264 2.901-10.802a13.185 13.185 0 0 0-7.146-9.905l-.076-.034A12.454 12.454 0 0 0 17.867.268L17.8.26c-.456-.069-2.439-.13-2.809-.086zm2.151 2.423a10.857 10.857 0 0 1 9.08 7.271l.023.076c1.162 3.497.493 7.046-2.06 10.941-1.477 2.256-3.886 4.852-6.505 7.013-.855.706-1.618 1.293-1.68 1.293s-.826-.587-1.68-1.293a37.224 37.224 0 0 1-2.806-2.566l-.004-.004c-3.566-3.562-5.673-7.118-6.19-10.444-.461-2.954.434-6.104 2.412-8.488 1.724-2.079 4.351-3.49 7.069-3.798a15.731 15.731 0 0 1 2.396.002l-.053-.003zm-2.087 5.636c-1.951.355-3.556 1.847-4.082 3.796-.115.429-.13.562-.13 1.295-.002.68.014.883.101 1.224a5.257 5.257 0 0 0 3.819 3.848l.036.008c.589.149 1.812.149 2.4 0a5.257 5.257 0 0 0 3.848-3.819l.008-.036c.086-.341.102-.544.101-1.224 0-.733-.014-.866-.13-1.295-.53-1.964-2.14-3.452-4.108-3.796a6.872 6.872 0 0 0-1.899.004l.036-.004zm1.592 2.386c.382.08.888.347 1.208.637.618.56.928 1.248.928 2.06 0 .837-.242 1.427-.816 2-.571.568-1.17.816-1.968.816s-1.397-.248-1.968-.816c-.575-.573-.816-1.163-.816-2 0-.797.307-1.493.898-2.032.703-.642 1.563-.867 2.535-.664z"/>
    </symbol>
    <symbol id="icon-star" viewBox="0 0 34 32">
      <path d="m33.514 12.222-11.54-1.676L16.813.089l-5.161 10.457-11.54 1.676 8.351 8.14-1.971 11.492 10.321-5.426 10.321 5.426-1.971-11.492 8.351-8.14z"/>
    </symbol>
    <symbol id="icon-calendar" viewBox="0 0 32 32">
      <path d="M10.189 1.578c-.13.061-.242.137-.34.227l.001-.001c-.299.285-.326.389-.355 1.397l-.026.933-1.815.03c-2 .032-2.055.04-2.753.405a3.938 3.938 0 0 0-1.963 2.429l-.006.028c-.106.408-.107.594-.106 10.317.002 9.672.003 9.909.106 10.311.338 1.314 1.44 2.418 2.756 2.754.402.102.632.106 10.316.106s9.914-.003 10.316-.106c1.315-.336 2.418-1.44 2.756-2.754.102-.402.104-.639.106-10.311.002-9.723 0-9.909-.106-10.317a3.94 3.94 0 0 0-1.949-2.446l-.021-.01c-.698-.365-.752-.373-2.753-.405l-1.815-.03-.026-.933c-.029-1.008-.056-1.112-.355-1.397a1.229 1.229 0 0 0-1.639.001l.001-.001c-.301.285-.326.389-.355 1.397l-.027.933H11.87l-.027-.933c-.029-1.008-.054-1.112-.355-1.397a1.282 1.282 0 0 0-1.306-.223l.009-.003zm-.694 5.891c.029 1.008.056 1.112.355 1.397.55.523 1.504.368 1.877-.304.069-.126.094-.36.115-1.093l.027-.935h8.267l.027.935c.029 1.008.054 1.112.355 1.397a1.229 1.229 0 0 0 1.639-.001l-.001.001c.299-.285.326-.389.355-1.397l.026-.935h1.547c1.511.002 1.554.003 1.826.126.342.155.658.488.792.837.094.245.102.427.102 2.452v2.186H5.2V9.949c0-2.018.008-2.208.101-2.448a1.528 1.528 0 0 1 1.107-.936l.01-.002c.123-.024.859-.04 1.635-.037l1.415.008.026.935zm17.31 13.255c0 5.958-.003 6.198-.102 6.451-.155.37-.433.664-.783.834l-.009.004-.278.125h-9.602c-9.317 0-9.61-.003-9.866-.101a1.623 1.623 0 0 1-.833-.784l-.004-.01-.126-.278-.014-6.16c-.008-3.388-.003-6.19.011-6.228.022-.054 2.058-.066 10.816-.054l10.791.013v6.188z"/>
    </symbol>
    
  <symbol fill="none" xmlns="http://www.w3.org/2000/svg" viewBox="0 0 20 20" id="icon-close">
    <path d="M18 2L2 18" stroke="#101828" stroke-width="3" stroke-linecap="round" stroke-linejoin="round"></path>
    <path d="M2 2L18 18" stroke="#101828" stroke-width="3" stroke-linecap="round" stroke-linejoin="round"></path>
  </symbol>

    
  </defs>
</svg>
